%TF.GenerationSoftware,KiCad,Pcbnew,(6.0.10)*%
%TF.CreationDate,2023-02-02T13:59:13+08:00*%
%TF.ProjectId,AlarmTag,416c6172-6d54-4616-972e-6b696361645f,rev?*%
%TF.SameCoordinates,Original*%
%TF.FileFunction,Legend,Bot*%
%TF.FilePolarity,Positive*%
%FSLAX46Y46*%
G04 Gerber Fmt 4.6, Leading zero omitted, Abs format (unit mm)*
G04 Created by KiCad (PCBNEW (6.0.10)) date 2023-02-02 13:59:13*
%MOMM*%
%LPD*%
G01*
G04 APERTURE LIST*
%ADD10C,0.150000*%
G04 APERTURE END LIST*
D10*
X128150476Y-126785714D02*
X126912380Y-126785714D01*
X128150476Y-127071428D02*
X126912380Y-127071428D01*
X128150476Y-127357142D02*
X126912380Y-127357142D01*
X128150476Y-126500000D02*
X128150476Y-127452380D01*
X128150476Y-126500000D02*
X126912380Y-126500000D01*
X126912380Y-127452380D01*
X127579047Y-126309523D02*
X127674285Y-126500000D01*
X126674285Y-126595238D02*
X126198095Y-126595238D01*
X125960000Y-126595238D02*
X125436190Y-126595238D01*
X126674285Y-126785714D02*
X126198095Y-126785714D01*
X125960000Y-126785714D02*
X125436190Y-126785714D01*
X126436190Y-126976190D02*
X125674285Y-126976190D01*
X126150476Y-127404761D02*
X125960000Y-127404761D01*
X125721904Y-127452380D02*
X125436190Y-127452380D01*
X126674285Y-126404761D02*
X126674285Y-127452380D01*
X126674285Y-126404761D02*
X126198095Y-126404761D01*
X126198095Y-126785714D01*
X125960000Y-126404761D02*
X125960000Y-126785714D01*
X125960000Y-126833333D02*
X125960000Y-127404761D01*
X125960000Y-126404761D02*
X125436190Y-126404761D01*
X125436190Y-127452380D01*
X125960000Y-126976190D02*
X126150476Y-127166666D01*
X126483809Y-127309523D01*
X125198095Y-127023809D02*
X123960000Y-127023809D01*
X125198095Y-126547619D02*
X125198095Y-127119047D01*
X124579047Y-126309523D02*
X124579047Y-127452380D01*
X125198095Y-126547619D02*
X123960000Y-126547619D01*
X123960000Y-127071428D01*
X123483809Y-127119047D02*
X123388571Y-127119047D01*
X123293333Y-127214285D01*
X123293333Y-127309523D01*
X123388571Y-127404761D01*
X123483809Y-127404761D01*
X123579047Y-127309523D01*
X123579047Y-127214285D01*
X123483809Y-127119047D01*
X122436190Y-127119047D02*
X122340952Y-127119047D01*
X122245714Y-127214285D01*
X122245714Y-127309523D01*
X122340952Y-127404761D01*
X122436190Y-127404761D01*
X122531428Y-127309523D01*
X122531428Y-127214285D01*
X122436190Y-127119047D01*
X121388571Y-127119047D02*
X121293333Y-127119047D01*
X121198095Y-127214285D01*
X121198095Y-127309523D01*
X121293333Y-127404761D01*
X121388571Y-127404761D01*
X121483809Y-127309523D01*
X121483809Y-127214285D01*
X121388571Y-127119047D01*
%TO.C,G\u002A\u002A\u002A*%
G36*
X127324312Y-121677975D02*
G01*
X127347911Y-121762943D01*
X127357201Y-121815937D01*
X127358286Y-121829837D01*
X127372611Y-121898283D01*
X127398164Y-121982560D01*
X127427627Y-122096643D01*
X127437028Y-122158015D01*
X127452631Y-122259881D01*
X127469016Y-122446219D01*
X127475763Y-122638330D01*
X127474916Y-122677422D01*
X127471852Y-122818882D01*
X127456264Y-122970547D01*
X127448683Y-123015829D01*
X127425649Y-123140231D01*
X127403682Y-123223468D01*
X127377695Y-123277142D01*
X127353797Y-123301461D01*
X127342604Y-123312851D01*
X127293322Y-123342197D01*
X127208401Y-123386111D01*
X127291424Y-123436600D01*
X127361249Y-123489605D01*
X127448719Y-123576557D01*
X127531076Y-123675897D01*
X127595283Y-123771703D01*
X127628304Y-123848053D01*
X127649188Y-123916831D01*
X127677491Y-123971697D01*
X127694183Y-124015961D01*
X127705494Y-124103587D01*
X127708797Y-124213823D01*
X127704263Y-124328887D01*
X127692063Y-124431000D01*
X127672370Y-124502382D01*
X127670779Y-124505788D01*
X127630447Y-124591596D01*
X127587420Y-124682427D01*
X127567196Y-124718889D01*
X127493707Y-124818244D01*
X127395625Y-124924195D01*
X127288532Y-125019184D01*
X127198006Y-125072920D01*
X127051009Y-125124158D01*
X126883213Y-125154137D01*
X126713612Y-125158262D01*
X126707111Y-125157840D01*
X126601874Y-125147335D01*
X126517925Y-125132596D01*
X126472921Y-125116674D01*
X126429806Y-125093230D01*
X126358718Y-125069363D01*
X126320184Y-125053503D01*
X126238020Y-124996121D01*
X126146374Y-124912185D01*
X126058206Y-124815228D01*
X125986473Y-124718785D01*
X125944136Y-124636389D01*
X125931232Y-124587060D01*
X125929484Y-124480292D01*
X125966710Y-124399755D01*
X126039433Y-124355689D01*
X126061537Y-124351407D01*
X126129962Y-124360941D01*
X126191021Y-124413484D01*
X126253269Y-124515425D01*
X126313689Y-124611260D01*
X126428530Y-124722043D01*
X126562947Y-124791047D01*
X126708869Y-124820885D01*
X126858221Y-124814170D01*
X127002933Y-124773514D01*
X127134932Y-124701530D01*
X127246144Y-124600830D01*
X127328498Y-124474029D01*
X127373921Y-124323738D01*
X127374341Y-124152570D01*
X127332365Y-123994683D01*
X127240839Y-123841462D01*
X127108008Y-123723463D01*
X126939218Y-123646898D01*
X126875374Y-123629359D01*
X126796926Y-123616234D01*
X126723684Y-123621951D01*
X126626327Y-123646470D01*
X126482535Y-123706893D01*
X126337222Y-123820747D01*
X126230605Y-123972586D01*
X126212363Y-124005335D01*
X126145494Y-124078020D01*
X126070690Y-124097646D01*
X125992661Y-124062437D01*
X125985164Y-124056317D01*
X125954169Y-124025548D01*
X125941763Y-123989753D01*
X125945850Y-123932180D01*
X125964333Y-123836078D01*
X125982239Y-123753193D01*
X126002265Y-123669060D01*
X126016148Y-123620579D01*
X126020296Y-123599993D01*
X126004074Y-123579354D01*
X125984246Y-123597203D01*
X125949777Y-123664798D01*
X125906055Y-123777646D01*
X125855149Y-123930314D01*
X125799129Y-124117369D01*
X125798377Y-124119999D01*
X125762455Y-124243430D01*
X125726467Y-124363703D01*
X125698096Y-124455134D01*
X125687637Y-124489625D01*
X125666287Y-124576082D01*
X125657793Y-124637234D01*
X125646389Y-124687618D01*
X125599476Y-124781717D01*
X125522578Y-124899093D01*
X125422517Y-125031317D01*
X125306116Y-125169960D01*
X125180197Y-125306592D01*
X125051581Y-125432783D01*
X124927091Y-125540105D01*
X124843173Y-125598762D01*
X124699774Y-125681178D01*
X124539162Y-125758916D01*
X124382691Y-125820959D01*
X124354275Y-125830465D01*
X124283978Y-125850790D01*
X124210922Y-125865342D01*
X124124332Y-125875104D01*
X124013436Y-125881059D01*
X123867459Y-125884191D01*
X123675630Y-125885482D01*
X123476140Y-125884838D01*
X123299351Y-125880549D01*
X123158266Y-125871821D01*
X123041932Y-125857952D01*
X122939398Y-125838239D01*
X122939196Y-125838192D01*
X122814815Y-125809865D01*
X122692822Y-125782609D01*
X122599599Y-125762318D01*
X122595160Y-125761372D01*
X122514826Y-125743452D01*
X122396001Y-125716065D01*
X122253981Y-125682765D01*
X122104058Y-125647109D01*
X122100263Y-125646199D01*
X121944764Y-125609129D01*
X121792344Y-125573106D01*
X121660328Y-125542208D01*
X121566042Y-125520511D01*
X121393254Y-125480333D01*
X121216154Y-125437025D01*
X121049044Y-125394211D01*
X120900965Y-125354329D01*
X120780958Y-125319815D01*
X120698065Y-125293107D01*
X120661327Y-125276642D01*
X120642062Y-125263819D01*
X120583858Y-125250034D01*
X120567821Y-125246167D01*
X120516625Y-125208549D01*
X120463651Y-125143847D01*
X120457786Y-125134779D01*
X120429189Y-125083215D01*
X120409550Y-125026301D01*
X120396496Y-124951216D01*
X120387656Y-124845141D01*
X120384820Y-124784392D01*
X120702386Y-124784392D01*
X120704839Y-124832530D01*
X120720028Y-124888122D01*
X120755365Y-124933468D01*
X120817960Y-124972662D01*
X120914923Y-125009800D01*
X121053367Y-125048979D01*
X121240401Y-125094294D01*
X121287473Y-125105260D01*
X121473090Y-125148632D01*
X121663047Y-125193189D01*
X121837507Y-125234271D01*
X121976633Y-125267220D01*
X122057456Y-125286448D01*
X122205307Y-125321599D01*
X122341316Y-125353911D01*
X122443857Y-125378244D01*
X122554489Y-125403611D01*
X122790547Y-125452733D01*
X123022413Y-125494899D01*
X123233350Y-125527182D01*
X123406622Y-125546654D01*
X123432274Y-125548768D01*
X123541708Y-125558483D01*
X123628458Y-125567254D01*
X123675630Y-125573399D01*
X123740992Y-125576047D01*
X123847657Y-125568126D01*
X123977363Y-125551656D01*
X124113744Y-125529055D01*
X124240435Y-125502739D01*
X124341070Y-125475126D01*
X124375888Y-125462023D01*
X124488769Y-125408132D01*
X124616409Y-125335202D01*
X124737503Y-125255060D01*
X124829091Y-125185187D01*
X125012942Y-125014041D01*
X125168693Y-124818170D01*
X125301205Y-124589764D01*
X125415338Y-124321012D01*
X125515953Y-124004103D01*
X125531411Y-123950130D01*
X125592479Y-123760107D01*
X125661115Y-123575351D01*
X125732130Y-123408312D01*
X125765110Y-123342130D01*
X126365708Y-123342130D01*
X126374356Y-123367932D01*
X126415816Y-123378775D01*
X126478974Y-123352821D01*
X126515471Y-123336926D01*
X126586833Y-123324938D01*
X126627187Y-123319447D01*
X126635975Y-123301461D01*
X126602250Y-123278206D01*
X126532143Y-123257267D01*
X126453442Y-123254767D01*
X126389719Y-123284260D01*
X126365708Y-123342130D01*
X125765110Y-123342130D01*
X125800334Y-123271445D01*
X125860540Y-123177201D01*
X125954270Y-123078154D01*
X126075544Y-123001452D01*
X126222695Y-122960170D01*
X126408183Y-122949121D01*
X126544264Y-122956097D01*
X126710136Y-122973936D01*
X126857914Y-122998417D01*
X126978608Y-123019887D01*
X127065547Y-123027152D01*
X127107314Y-123018974D01*
X127119131Y-122995339D01*
X127136380Y-122926739D01*
X127149789Y-122835097D01*
X127166063Y-122677422D01*
X127056131Y-122649320D01*
X127023442Y-122641257D01*
X126830207Y-122602869D01*
X126618313Y-122573613D01*
X126402456Y-122554502D01*
X126197334Y-122546548D01*
X126017643Y-122550764D01*
X125878080Y-122568162D01*
X125751106Y-122619265D01*
X125629350Y-122723120D01*
X125530046Y-122872073D01*
X125510086Y-122916658D01*
X125468062Y-123033327D01*
X125422451Y-123182725D01*
X125377396Y-123349969D01*
X125337041Y-123520176D01*
X125305529Y-123678462D01*
X125299578Y-123708824D01*
X125261954Y-123848404D01*
X125205786Y-124012502D01*
X125138245Y-124181413D01*
X125066501Y-124335427D01*
X125056063Y-124354738D01*
X124980286Y-124466545D01*
X124874345Y-124594453D01*
X124751420Y-124724360D01*
X124624688Y-124842165D01*
X124507329Y-124933766D01*
X124505783Y-124934817D01*
X124339390Y-125026375D01*
X124132679Y-125106421D01*
X123901442Y-125169774D01*
X123661472Y-125211255D01*
X123556955Y-125222797D01*
X123441075Y-125231585D01*
X123325649Y-125234340D01*
X123196496Y-125230962D01*
X123039436Y-125221348D01*
X122840290Y-125205398D01*
X122632505Y-125185314D01*
X122130309Y-125114831D01*
X121671414Y-125017270D01*
X121258269Y-124893212D01*
X120893326Y-124743239D01*
X120813291Y-124707489D01*
X120747000Y-124683214D01*
X120716347Y-124679179D01*
X120715781Y-124679820D01*
X120706301Y-124717267D01*
X120702386Y-124784392D01*
X120384820Y-124784392D01*
X120380659Y-124695256D01*
X120367304Y-124352852D01*
X120187190Y-124170874D01*
X120712801Y-124170874D01*
X120726766Y-124239026D01*
X120760461Y-124269268D01*
X120816394Y-124268715D01*
X120905503Y-124271651D01*
X121018727Y-124309401D01*
X121387761Y-124457702D01*
X121800981Y-124582954D01*
X122248057Y-124682271D01*
X122719616Y-124753206D01*
X122786044Y-124760657D01*
X123125915Y-124788072D01*
X123421615Y-124790886D01*
X123679561Y-124767760D01*
X123906170Y-124717350D01*
X124107859Y-124638317D01*
X124291046Y-124529318D01*
X124462147Y-124389014D01*
X124465484Y-124385881D01*
X124566287Y-124281138D01*
X124653088Y-124173099D01*
X124710542Y-124080805D01*
X124759651Y-123962527D01*
X124813471Y-123805813D01*
X124866635Y-123628442D01*
X124913875Y-123447989D01*
X124949926Y-123282029D01*
X124991688Y-123090639D01*
X125077291Y-122819846D01*
X125187074Y-122593063D01*
X125323357Y-122404842D01*
X125353140Y-122372237D01*
X125477354Y-122264357D01*
X125619909Y-122188877D01*
X125799376Y-122135280D01*
X125921875Y-122108583D01*
X126063013Y-122082559D01*
X126172666Y-122070501D01*
X126264343Y-122071133D01*
X126351550Y-122083182D01*
X126429259Y-122097242D01*
X126544978Y-122116480D01*
X126676114Y-122137122D01*
X126808410Y-122157028D01*
X126927610Y-122174060D01*
X127019457Y-122186077D01*
X127069695Y-122190942D01*
X127083930Y-122188171D01*
X127096841Y-122158015D01*
X127088867Y-122085653D01*
X127078550Y-122037127D01*
X127054426Y-121977511D01*
X127011105Y-121935251D01*
X126936562Y-121900445D01*
X126818774Y-121863188D01*
X126765083Y-121849810D01*
X126612411Y-121825991D01*
X126429598Y-121811444D01*
X126230997Y-121806048D01*
X126030963Y-121809685D01*
X125843849Y-121822235D01*
X125684010Y-121843579D01*
X125565800Y-121873597D01*
X125515785Y-121892943D01*
X125282524Y-122010689D01*
X125092959Y-122159824D01*
X124943470Y-122344629D01*
X124830439Y-122569385D01*
X124750246Y-122838373D01*
X124707438Y-123021910D01*
X124664380Y-123179539D01*
X124617165Y-123318492D01*
X124559239Y-123457940D01*
X124484048Y-123617054D01*
X124394390Y-123783048D01*
X124255572Y-123985315D01*
X124108344Y-124141246D01*
X123957022Y-124245693D01*
X123853551Y-124290863D01*
X123619572Y-124354779D01*
X123347271Y-124387090D01*
X123042291Y-124387918D01*
X122710277Y-124357386D01*
X122356875Y-124295619D01*
X121987729Y-124202738D01*
X121857087Y-124165660D01*
X121676386Y-124115661D01*
X121486582Y-124064210D01*
X121312166Y-124018005D01*
X121290830Y-124012415D01*
X121144408Y-123972742D01*
X121011067Y-123934523D01*
X120904758Y-123901865D01*
X120839432Y-123878873D01*
X120738509Y-123836705D01*
X120721514Y-123999297D01*
X120716061Y-124057695D01*
X120712801Y-124170874D01*
X120187190Y-124170874D01*
X120173696Y-124157240D01*
X120137378Y-124120189D01*
X120036925Y-124014617D01*
X119944337Y-123913403D01*
X119875891Y-123834203D01*
X119833188Y-123781953D01*
X119765134Y-123698587D01*
X119714125Y-123635987D01*
X119656555Y-123565196D01*
X119655613Y-124086823D01*
X119655276Y-124181153D01*
X119652634Y-124363137D01*
X119645877Y-124498310D01*
X119633130Y-124593530D01*
X119612519Y-124655654D01*
X119582172Y-124691539D01*
X119540214Y-124708041D01*
X119484771Y-124712018D01*
X119436238Y-124705702D01*
X119373652Y-124667035D01*
X119322166Y-124586680D01*
X119275653Y-124457169D01*
X119258396Y-124401934D01*
X119226239Y-124330238D01*
X119181688Y-124284341D01*
X119109531Y-124244794D01*
X119053625Y-124214604D01*
X118998329Y-124167970D01*
X118948062Y-124098002D01*
X118890123Y-123989945D01*
X118791015Y-123791728D01*
X118590075Y-123783497D01*
X118389135Y-123775265D01*
X118292149Y-123896763D01*
X118262875Y-123934248D01*
X118182294Y-124042946D01*
X118110895Y-124145686D01*
X118077288Y-124195899D01*
X118034750Y-124257401D01*
X118012122Y-124287269D01*
X118002115Y-124299838D01*
X117967132Y-124349966D01*
X117919612Y-124421773D01*
X117890190Y-124464362D01*
X117843871Y-124520240D01*
X117813690Y-124542119D01*
X117803952Y-124544276D01*
X117785775Y-124576284D01*
X117784537Y-124582818D01*
X117761454Y-124630591D01*
X117716865Y-124704432D01*
X117660849Y-124789424D01*
X117603485Y-124870651D01*
X117554852Y-124933198D01*
X117525031Y-124962148D01*
X117522775Y-124963226D01*
X117502609Y-124996983D01*
X117497747Y-125010170D01*
X117467124Y-125063388D01*
X117414574Y-125144628D01*
X117347369Y-125242394D01*
X117311723Y-125292962D01*
X117242972Y-125390772D01*
X117187986Y-125469358D01*
X117156232Y-125515212D01*
X117137861Y-125541418D01*
X117087809Y-125610381D01*
X117028305Y-125690492D01*
X116992848Y-125739828D01*
X116952132Y-125804051D01*
X116936277Y-125840624D01*
X116935944Y-125845377D01*
X116912604Y-125877719D01*
X116912049Y-125877976D01*
X116885173Y-125906129D01*
X116835904Y-125969278D01*
X116772576Y-126055632D01*
X116703524Y-126153398D01*
X116637084Y-126250786D01*
X116581590Y-126336001D01*
X116545378Y-126397254D01*
X116512968Y-126445241D01*
X116481666Y-126467648D01*
X116475586Y-126468378D01*
X116454894Y-126495506D01*
X116454820Y-126496446D01*
X116437369Y-126532416D01*
X116395022Y-126600929D01*
X116336119Y-126689883D01*
X116269000Y-126787174D01*
X116202003Y-126880699D01*
X116143469Y-126958355D01*
X116101736Y-127008039D01*
X116076206Y-127039524D01*
X116058444Y-127078831D01*
X116058396Y-127079611D01*
X116040423Y-127115228D01*
X115996263Y-127180516D01*
X115935038Y-127261944D01*
X115869926Y-127347661D01*
X115811360Y-127430013D01*
X115775484Y-127486693D01*
X115746114Y-127537323D01*
X115713588Y-127584371D01*
X115699606Y-127602506D01*
X115671142Y-127641726D01*
X115625795Y-127705491D01*
X115560994Y-127797460D01*
X115474167Y-127921295D01*
X115362742Y-128080656D01*
X115224146Y-128279205D01*
X115055808Y-128520602D01*
X115047916Y-128531745D01*
X115004289Y-128587385D01*
X114975351Y-128614991D01*
X114971973Y-128616842D01*
X114954114Y-128651894D01*
X114949973Y-128663778D01*
X114919771Y-128715487D01*
X114866696Y-128794763D01*
X114798372Y-128889952D01*
X114762648Y-128938959D01*
X114701048Y-129027344D01*
X114658504Y-129093809D01*
X114642631Y-129126776D01*
X114642467Y-129130107D01*
X114621394Y-129162446D01*
X114596676Y-129187644D01*
X114550099Y-129247163D01*
X114492345Y-129327626D01*
X114438089Y-129405487D01*
X114357734Y-129519996D01*
X114265872Y-129650326D01*
X114173609Y-129780692D01*
X114094711Y-129892459D01*
X113989636Y-130042600D01*
X113889710Y-130186619D01*
X113808838Y-130304549D01*
X113781559Y-130344606D01*
X113697730Y-130466615D01*
X113616953Y-130582833D01*
X113553513Y-130672665D01*
X113513595Y-130728791D01*
X113430597Y-130847235D01*
X113355812Y-130955831D01*
X113310886Y-131021283D01*
X113236044Y-131129134D01*
X113148677Y-131254170D01*
X113059803Y-131380580D01*
X112986893Y-131484243D01*
X112895858Y-131614443D01*
X112814391Y-131731741D01*
X112754086Y-131819488D01*
X112735968Y-131845931D01*
X112675886Y-131932417D01*
X112598545Y-132042704D01*
X112512231Y-132165089D01*
X112425228Y-132287870D01*
X112345820Y-132399345D01*
X112282291Y-132487809D01*
X112242927Y-132541561D01*
X112242513Y-132542113D01*
X112215777Y-132579850D01*
X112167707Y-132649339D01*
X112108416Y-132735965D01*
X112044427Y-132824126D01*
X111983278Y-132898436D01*
X111939295Y-132941261D01*
X111899197Y-132964913D01*
X111823197Y-132976041D01*
X111749487Y-132933605D01*
X111725639Y-132905516D01*
X111699079Y-132820508D01*
X111713747Y-132724161D01*
X111768495Y-132634537D01*
X111778267Y-132623766D01*
X111821660Y-132568932D01*
X111839287Y-132533978D01*
X111851458Y-132504525D01*
X111888841Y-132454391D01*
X111928852Y-132403842D01*
X111987371Y-132322889D01*
X112051279Y-132229598D01*
X112056159Y-132222282D01*
X112113046Y-132138203D01*
X112157178Y-132075054D01*
X112179358Y-132046020D01*
X112203522Y-132016058D01*
X112242385Y-131961071D01*
X112280361Y-131905318D01*
X112339295Y-131819373D01*
X112404551Y-131724602D01*
X112408360Y-131719068D01*
X112464188Y-131634422D01*
X112503817Y-131567894D01*
X112518885Y-131533465D01*
X112519190Y-131529308D01*
X112541568Y-131508005D01*
X112563286Y-131488130D01*
X112609664Y-131429661D01*
X112673198Y-131341895D01*
X112746864Y-131234201D01*
X112814786Y-131133527D01*
X112883004Y-131034939D01*
X112935615Y-130961677D01*
X112964872Y-130924741D01*
X112982890Y-130904332D01*
X113000268Y-130872981D01*
X113015128Y-130846847D01*
X113057558Y-130784454D01*
X113120902Y-130695548D01*
X113198484Y-130589671D01*
X113272761Y-130487328D01*
X113337115Y-130394124D01*
X113380678Y-130325727D01*
X113396700Y-130292269D01*
X113397522Y-130284034D01*
X113418302Y-130262074D01*
X113436538Y-130251571D01*
X113467856Y-130208250D01*
X113485384Y-130178961D01*
X113531817Y-130108007D01*
X113596863Y-130012224D01*
X113672303Y-129903846D01*
X113733816Y-129816517D01*
X113871086Y-129621681D01*
X113988018Y-129455798D01*
X114093400Y-129306407D01*
X114196020Y-129161046D01*
X114304670Y-129007254D01*
X114305710Y-129005781D01*
X114381598Y-128897278D01*
X114443704Y-128806410D01*
X114485648Y-128742657D01*
X114501048Y-128715502D01*
X114505419Y-128706335D01*
X114535792Y-128659822D01*
X114588754Y-128584450D01*
X114656789Y-128491052D01*
X114693260Y-128441301D01*
X114754501Y-128355446D01*
X114796768Y-128292976D01*
X114812531Y-128264832D01*
X114815441Y-128254334D01*
X114840420Y-128215004D01*
X114858836Y-128192304D01*
X114930789Y-128100745D01*
X115004209Y-128001723D01*
X115088821Y-127881850D01*
X115194350Y-127727737D01*
X115195212Y-127726467D01*
X115270919Y-127615827D01*
X115335487Y-127523153D01*
X115382095Y-127458123D01*
X115403923Y-127430413D01*
X115417063Y-127416486D01*
X115449654Y-127370936D01*
X115515335Y-127268215D01*
X115584484Y-127166193D01*
X115636768Y-127096356D01*
X115666261Y-127067016D01*
X115671567Y-127064204D01*
X115690346Y-127027797D01*
X115699933Y-127005249D01*
X115737398Y-126944061D01*
X115796605Y-126856755D01*
X115870486Y-126754069D01*
X115924223Y-126680725D01*
X116001231Y-126573661D01*
X116064229Y-126483785D01*
X116103255Y-126425173D01*
X116137044Y-126373924D01*
X116197802Y-126286442D01*
X116271085Y-126183604D01*
X116345726Y-126080905D01*
X116410557Y-125993840D01*
X116454411Y-125937907D01*
X116466571Y-125920607D01*
X116483211Y-125873306D01*
X116488150Y-125857225D01*
X116525686Y-125826606D01*
X116545592Y-125815837D01*
X116568161Y-125783636D01*
X116570062Y-125775435D01*
X116595160Y-125726475D01*
X116641666Y-125651842D01*
X116699703Y-125565865D01*
X116759397Y-125482869D01*
X116810870Y-125417182D01*
X116844248Y-125383131D01*
X116858908Y-125371362D01*
X116879643Y-125334036D01*
X116884563Y-125320532D01*
X116915393Y-125266909D01*
X116968253Y-125185448D01*
X117035837Y-125087672D01*
X117071917Y-125036778D01*
X117140761Y-124939134D01*
X117195591Y-124860674D01*
X117226974Y-124814862D01*
X117241859Y-124792792D01*
X117289138Y-124724609D01*
X117345447Y-124644962D01*
X117363796Y-124619057D01*
X117427056Y-124528300D01*
X117504184Y-124416276D01*
X117582456Y-124301427D01*
X117621400Y-124244589D01*
X117687339Y-124151335D01*
X117739498Y-124081342D01*
X117769113Y-124046578D01*
X117778710Y-124036965D01*
X117819543Y-123984326D01*
X117867135Y-123912074D01*
X117897835Y-123857952D01*
X117910263Y-123817413D01*
X117891327Y-123805887D01*
X117837672Y-123785641D01*
X117774358Y-123733700D01*
X117722386Y-123669409D01*
X117700825Y-123612160D01*
X117713561Y-123560210D01*
X117751639Y-123494559D01*
X117771432Y-123473242D01*
X117815739Y-123446711D01*
X117884108Y-123432651D01*
X117992775Y-123426478D01*
X118030308Y-123425142D01*
X118130584Y-123415790D01*
X118196055Y-123395789D01*
X118196722Y-123395296D01*
X118635273Y-123395296D01*
X118638468Y-123414836D01*
X118663590Y-123437771D01*
X118676616Y-123432979D01*
X118691906Y-123395296D01*
X118688712Y-123375756D01*
X118663590Y-123352821D01*
X118650563Y-123357613D01*
X118635273Y-123395296D01*
X118196722Y-123395296D01*
X118243511Y-123360736D01*
X118303925Y-123300321D01*
X118184141Y-123164238D01*
X118128161Y-123098127D01*
X118062076Y-123013693D01*
X118018068Y-122949797D01*
X118010615Y-122937446D01*
X117982077Y-122901042D01*
X117943647Y-122881251D01*
X117879753Y-122873056D01*
X117774820Y-122871439D01*
X117643338Y-122863897D01*
X117545672Y-122836440D01*
X117491199Y-122785968D01*
X117474292Y-122709447D01*
X117474421Y-122698422D01*
X117493682Y-122602433D01*
X117549003Y-122548505D01*
X117645188Y-122531639D01*
X117645961Y-122531639D01*
X117709980Y-122528483D01*
X117744334Y-122512578D01*
X117750668Y-122474182D01*
X117733712Y-122414413D01*
X118806778Y-122414413D01*
X118806829Y-122466489D01*
X118855837Y-122494784D01*
X118956525Y-122503323D01*
X118993856Y-122504314D01*
X119109788Y-122527313D01*
X119178780Y-122581153D01*
X119201605Y-122666350D01*
X119201124Y-122679204D01*
X119172777Y-122750495D01*
X119097970Y-122799608D01*
X118972881Y-122829265D01*
X118904385Y-122839663D01*
X118854041Y-122854727D01*
X118837753Y-122879781D01*
X118842868Y-122924052D01*
X118858454Y-122980741D01*
X118906126Y-123101536D01*
X118970876Y-123233584D01*
X119041834Y-123355502D01*
X119071016Y-123395296D01*
X119108134Y-123445911D01*
X119157242Y-123515260D01*
X119200069Y-123599652D01*
X119201810Y-123603996D01*
X119237156Y-123674645D01*
X119272005Y-123720611D01*
X119285052Y-123724300D01*
X119297377Y-123702079D01*
X119306625Y-123643935D01*
X119313803Y-123542966D01*
X119319920Y-123392268D01*
X119323722Y-123286275D01*
X119329819Y-123168851D01*
X119338222Y-123090260D01*
X119350933Y-123039860D01*
X119369954Y-123007008D01*
X119397287Y-122981063D01*
X119482825Y-122936334D01*
X119575953Y-122937925D01*
X119657604Y-122991784D01*
X119680346Y-123018920D01*
X119736609Y-123091252D01*
X119809061Y-123188111D01*
X119887644Y-123296188D01*
X119924098Y-123346312D01*
X120024212Y-123478725D01*
X120126886Y-123608601D01*
X120214823Y-123713858D01*
X120239401Y-123741635D01*
X120310305Y-123817768D01*
X120365195Y-123870880D01*
X120393822Y-123890837D01*
X120394579Y-123890833D01*
X120404655Y-123888703D01*
X120413578Y-123878000D01*
X120422646Y-123851937D01*
X120433153Y-123803728D01*
X120446396Y-123726588D01*
X120463670Y-123613729D01*
X120480280Y-123499562D01*
X120790428Y-123499562D01*
X120798278Y-123533065D01*
X120815500Y-123550943D01*
X120866909Y-123574018D01*
X120969781Y-123609737D01*
X121115434Y-123654663D01*
X121297450Y-123706825D01*
X121509409Y-123764249D01*
X121565175Y-123779119D01*
X121725356Y-123822912D01*
X121885864Y-123868065D01*
X122019108Y-123906858D01*
X122062145Y-123919303D01*
X122209734Y-123958135D01*
X122374723Y-123997375D01*
X122528807Y-124030175D01*
X122592360Y-124042128D01*
X122901943Y-124084899D01*
X123186332Y-124098200D01*
X123440576Y-124082586D01*
X123659724Y-124038614D01*
X123838823Y-123966841D01*
X123972923Y-123867823D01*
X124034325Y-123798442D01*
X124162826Y-123607201D01*
X124281201Y-123365780D01*
X124387592Y-123078277D01*
X124480141Y-122748791D01*
X124529211Y-122564523D01*
X124587614Y-122395279D01*
X124655987Y-122254260D01*
X124741772Y-122126431D01*
X124852411Y-121996759D01*
X124902291Y-121945139D01*
X125104819Y-121777119D01*
X125333428Y-121650855D01*
X125594950Y-121563166D01*
X125896218Y-121510872D01*
X125908964Y-121509500D01*
X126129017Y-121495211D01*
X126351225Y-121496628D01*
X126561183Y-121512680D01*
X126744485Y-121542299D01*
X126886724Y-121584413D01*
X126912721Y-121593238D01*
X126930175Y-121582736D01*
X126921429Y-121530450D01*
X126921012Y-121528877D01*
X126901496Y-121477543D01*
X126861244Y-121385373D01*
X126804514Y-121261665D01*
X126735567Y-121115718D01*
X126658662Y-120956832D01*
X126598235Y-120836036D01*
X126306481Y-120314172D01*
X125982895Y-119826843D01*
X125633517Y-119383321D01*
X125630257Y-119379534D01*
X125506755Y-119235627D01*
X125372174Y-119078150D01*
X125242554Y-118925906D01*
X125133935Y-118797699D01*
X125082555Y-118736827D01*
X124979421Y-118616722D01*
X124899855Y-118532359D01*
X124834411Y-118478614D01*
X124773644Y-118450365D01*
X124708110Y-118442487D01*
X124628363Y-118449857D01*
X124524959Y-118467352D01*
X124316638Y-118503600D01*
X124123642Y-118535393D01*
X123961360Y-118558921D01*
X123816609Y-118575414D01*
X123676203Y-118586103D01*
X123526960Y-118592215D01*
X123355693Y-118594981D01*
X123149220Y-118595630D01*
X122967979Y-118595762D01*
X122810814Y-118596661D01*
X122695846Y-118599064D01*
X122615429Y-118603704D01*
X122561920Y-118611318D01*
X122527673Y-118622639D01*
X122505046Y-118638402D01*
X122486392Y-118659343D01*
X122473106Y-118674434D01*
X122437726Y-118700540D01*
X122384845Y-118717535D01*
X122301420Y-118728674D01*
X122174409Y-118737213D01*
X121913919Y-118751372D01*
X121907297Y-118770754D01*
X121831690Y-118992063D01*
X121815606Y-119039477D01*
X121777472Y-119156899D01*
X121740641Y-119270310D01*
X121688002Y-119445059D01*
X121666953Y-119514937D01*
X121591589Y-119783821D01*
X121511596Y-120087424D01*
X121424020Y-120436210D01*
X121412390Y-120483251D01*
X121372353Y-120642960D01*
X121334087Y-120792539D01*
X121301451Y-120917020D01*
X121278305Y-121001433D01*
X121258748Y-121077039D01*
X121251333Y-121141360D01*
X121265895Y-121166781D01*
X121296838Y-121181881D01*
X121298389Y-121182638D01*
X121358548Y-121249383D01*
X121381984Y-121338701D01*
X121374437Y-121397571D01*
X121330602Y-121461871D01*
X121249893Y-121483925D01*
X121206315Y-121494022D01*
X121158436Y-121534981D01*
X121156328Y-121539472D01*
X121138792Y-121596176D01*
X121113435Y-121699194D01*
X121081871Y-121840434D01*
X121045712Y-122011807D01*
X121006571Y-122205222D01*
X120990966Y-122285102D01*
X120966060Y-122412589D01*
X120925793Y-122625817D01*
X120887383Y-122836815D01*
X120852441Y-123037493D01*
X120822582Y-123219760D01*
X120803727Y-123344530D01*
X120792171Y-123440146D01*
X120790428Y-123499562D01*
X120480280Y-123499562D01*
X120486273Y-123458366D01*
X120515499Y-123253713D01*
X120533788Y-123127363D01*
X120561688Y-122941221D01*
X120589046Y-122765506D01*
X120613478Y-122615446D01*
X120632598Y-122506266D01*
X120653152Y-122377382D01*
X120659495Y-122285102D01*
X120650056Y-122241449D01*
X120648507Y-122240049D01*
X120603664Y-122216706D01*
X120518175Y-122183024D01*
X120404941Y-122143116D01*
X120276863Y-122101094D01*
X120146841Y-122061069D01*
X120027777Y-122027155D01*
X119932572Y-122003465D01*
X119874125Y-121994109D01*
X119859423Y-122016046D01*
X119852887Y-122073161D01*
X119843421Y-122137271D01*
X119812732Y-122207665D01*
X119811050Y-122209924D01*
X119790190Y-122230438D01*
X119757677Y-122245292D01*
X119704514Y-122255695D01*
X119621706Y-122262852D01*
X119500258Y-122267970D01*
X119331173Y-122272255D01*
X119265224Y-122273738D01*
X119115219Y-122277957D01*
X119009498Y-122283300D01*
X118938962Y-122291086D01*
X118894512Y-122302631D01*
X118867048Y-122319253D01*
X118867038Y-122319265D01*
X118847471Y-122342268D01*
X118806778Y-122414413D01*
X117733712Y-122414413D01*
X117730631Y-122403553D01*
X117697125Y-122319265D01*
X118465374Y-122319265D01*
X118479532Y-122333423D01*
X118493690Y-122319265D01*
X118479532Y-122305106D01*
X118465374Y-122319265D01*
X117697125Y-122319265D01*
X117685868Y-122290948D01*
X117653846Y-122206789D01*
X117593435Y-122015137D01*
X117535600Y-121793149D01*
X117484250Y-121557888D01*
X117443295Y-121326421D01*
X117426081Y-121190398D01*
X120197696Y-121190398D01*
X120221003Y-121200759D01*
X120235994Y-121198715D01*
X120239881Y-121181881D01*
X120235731Y-121178492D01*
X120202126Y-121181881D01*
X120197696Y-121190398D01*
X117426081Y-121190398D01*
X117416642Y-121115809D01*
X117409398Y-121029362D01*
X117397925Y-120861175D01*
X117386886Y-120665717D01*
X117377255Y-120460761D01*
X117370003Y-120264081D01*
X117366268Y-119991086D01*
X117377334Y-119684805D01*
X117397543Y-119504612D01*
X119371505Y-119504612D01*
X119372307Y-119510470D01*
X119401431Y-119559465D01*
X119466372Y-119633295D01*
X119558861Y-119724650D01*
X119670628Y-119826219D01*
X119793404Y-119930693D01*
X119918919Y-120030761D01*
X120038904Y-120119113D01*
X120145089Y-120188440D01*
X120270228Y-120261129D01*
X120361875Y-120308508D01*
X120433873Y-120335791D01*
X120500206Y-120348276D01*
X120574856Y-120351260D01*
X120623851Y-120352415D01*
X120723166Y-120369825D01*
X120794745Y-120416333D01*
X120858127Y-120502360D01*
X120902566Y-120539864D01*
X120973461Y-120566125D01*
X121060477Y-120582867D01*
X121140156Y-120275927D01*
X121161478Y-120194417D01*
X121205628Y-120028464D01*
X121249704Y-119865794D01*
X121286751Y-119732206D01*
X121298022Y-119691604D01*
X121326443Y-119581876D01*
X121346238Y-119494344D01*
X121353668Y-119445059D01*
X121353640Y-119442352D01*
X121348904Y-119420003D01*
X121330145Y-119402377D01*
X121288927Y-119387144D01*
X121216813Y-119371973D01*
X121105365Y-119354535D01*
X120946147Y-119332498D01*
X120885113Y-119324430D01*
X120804895Y-119317202D01*
X120754287Y-119323274D01*
X120716028Y-119346264D01*
X120672858Y-119389792D01*
X120594714Y-119473445D01*
X119983110Y-119473445D01*
X119970096Y-119473448D01*
X119747748Y-119474700D01*
X119579285Y-119478311D01*
X119462138Y-119484412D01*
X119393735Y-119493136D01*
X119371505Y-119504612D01*
X117397543Y-119504612D01*
X117407797Y-119413189D01*
X117459506Y-119165256D01*
X117468615Y-119136613D01*
X119132648Y-119136613D01*
X119150154Y-119143976D01*
X119214872Y-119152680D01*
X119314698Y-119158150D01*
X119436889Y-119159431D01*
X119725463Y-119156899D01*
X119583880Y-119117502D01*
X119486725Y-119095715D01*
X119372278Y-119081385D01*
X119268327Y-119078789D01*
X119186191Y-119087448D01*
X119137192Y-119106882D01*
X119132648Y-119136613D01*
X117468615Y-119136613D01*
X117499313Y-119040082D01*
X121353668Y-119040082D01*
X121367924Y-119063229D01*
X121417813Y-119077013D01*
X121422263Y-119076939D01*
X121463698Y-119063793D01*
X121497518Y-119019569D01*
X121533423Y-118932110D01*
X121561302Y-118836712D01*
X121565890Y-118770754D01*
X121544999Y-118752095D01*
X121502042Y-118783150D01*
X121499134Y-118787077D01*
X121440434Y-118866335D01*
X121404937Y-118925558D01*
X121367995Y-118997225D01*
X121353668Y-119040082D01*
X117499313Y-119040082D01*
X117534313Y-118930026D01*
X117599795Y-118776739D01*
X119605707Y-118776739D01*
X119606146Y-118786405D01*
X119642873Y-118791611D01*
X119670706Y-118787077D01*
X119659981Y-118774503D01*
X119643606Y-118769979D01*
X119605707Y-118776739D01*
X117599795Y-118776739D01*
X117634065Y-118696518D01*
X117660231Y-118639812D01*
X117689457Y-118569986D01*
X117700825Y-118532962D01*
X117699897Y-118529522D01*
X117677036Y-118489601D01*
X117628148Y-118415470D01*
X117559416Y-118316291D01*
X117477021Y-118201228D01*
X117386555Y-118073706D01*
X117282573Y-117921150D01*
X117254824Y-117878794D01*
X118849924Y-117878794D01*
X118890123Y-117883244D01*
X118929076Y-117879297D01*
X118925518Y-117868961D01*
X118912701Y-117865221D01*
X118854727Y-117868961D01*
X118849924Y-117878794D01*
X117254824Y-117878794D01*
X117186984Y-117775244D01*
X117112652Y-117655264D01*
X117005373Y-117462750D01*
X116824205Y-117083001D01*
X116662250Y-116672086D01*
X116603003Y-116489840D01*
X118413749Y-116489840D01*
X118437057Y-116500201D01*
X118452048Y-116498158D01*
X118455935Y-116481323D01*
X118451784Y-116477934D01*
X118418179Y-116481323D01*
X118413749Y-116489840D01*
X116603003Y-116489840D01*
X116521582Y-116239386D01*
X116404275Y-115794281D01*
X116312402Y-115346152D01*
X116248038Y-114904380D01*
X116213255Y-114478346D01*
X116212936Y-114437462D01*
X118157791Y-114437462D01*
X118166113Y-114503520D01*
X118190047Y-114597309D01*
X118224790Y-114694657D01*
X118236252Y-114720759D01*
X118252790Y-114751849D01*
X118261467Y-114745718D01*
X118264985Y-114695895D01*
X118266049Y-114595909D01*
X118266126Y-114579914D01*
X118264699Y-114484667D01*
X118256972Y-114432004D01*
X118239134Y-114409511D01*
X118207373Y-114404772D01*
X118171317Y-114409915D01*
X118157791Y-114437462D01*
X116212936Y-114437462D01*
X116210128Y-114077431D01*
X116240730Y-113711015D01*
X116242240Y-113701982D01*
X118095521Y-113701982D01*
X118095837Y-113829124D01*
X118098654Y-113941405D01*
X118104002Y-114024921D01*
X118111907Y-114065767D01*
X118142398Y-114086128D01*
X118200707Y-114092152D01*
X118248279Y-114074411D01*
X118250911Y-114067821D01*
X118257309Y-114015613D01*
X118262465Y-113921422D01*
X118265905Y-113795891D01*
X118267157Y-113649662D01*
X118267157Y-113243791D01*
X118199517Y-113243791D01*
X118169192Y-113246790D01*
X118133916Y-113273981D01*
X118130936Y-113283906D01*
X118113387Y-113342349D01*
X118109296Y-113370438D01*
X118102279Y-113458735D01*
X118097677Y-113573884D01*
X118095521Y-113701982D01*
X116242240Y-113701982D01*
X116295273Y-113384695D01*
X116319208Y-113283173D01*
X117790224Y-113283173D01*
X117796984Y-113321072D01*
X117806650Y-113320633D01*
X117811856Y-113283906D01*
X117807321Y-113256072D01*
X117794748Y-113266798D01*
X117790224Y-113283173D01*
X116319208Y-113283173D01*
X116372805Y-113055838D01*
X116416384Y-112918150D01*
X117814091Y-112918150D01*
X117828250Y-112932308D01*
X117842408Y-112918150D01*
X117828250Y-112903992D01*
X117814091Y-112918150D01*
X116416384Y-112918150D01*
X116426313Y-112886780D01*
X118191690Y-112886780D01*
X118218055Y-112903992D01*
X118238185Y-112902680D01*
X118273723Y-112883483D01*
X118290274Y-112832034D01*
X118293164Y-112736452D01*
X118290854Y-112606667D01*
X118254190Y-112691617D01*
X118223725Y-112767223D01*
X118197958Y-112840279D01*
X118191690Y-112886780D01*
X116426313Y-112886780D01*
X116474970Y-112733051D01*
X116606730Y-112400789D01*
X116667304Y-112270665D01*
X117989000Y-112270665D01*
X118012308Y-112281026D01*
X118027298Y-112278983D01*
X118031185Y-112262148D01*
X118027035Y-112258759D01*
X117993430Y-112262148D01*
X117989000Y-112270665D01*
X116667304Y-112270665D01*
X116773048Y-112043508D01*
X116778880Y-112031687D01*
X116847396Y-111890587D01*
X116911079Y-111755748D01*
X116963049Y-111641944D01*
X116996425Y-111563947D01*
X117050360Y-111427358D01*
X116919087Y-111273702D01*
X116787814Y-111120045D01*
X116621354Y-111120045D01*
X116522222Y-111115821D01*
X116448997Y-111098451D01*
X116398261Y-111063412D01*
X116380115Y-111042511D01*
X116343955Y-110954243D01*
X116355043Y-110862224D01*
X116412419Y-110785305D01*
X116414982Y-110783278D01*
X116463256Y-110739979D01*
X116483211Y-110712168D01*
X116474185Y-110691802D01*
X116440130Y-110635852D01*
X116389425Y-110560502D01*
X116350452Y-110502765D01*
X116324788Y-110461424D01*
X117701256Y-110461424D01*
X117716816Y-110507904D01*
X117754842Y-110538724D01*
X117786415Y-110554343D01*
X117824254Y-110595986D01*
X117836799Y-110615049D01*
X117894765Y-110660642D01*
X117978955Y-110705005D01*
X118069642Y-110738610D01*
X118147099Y-110751929D01*
X118210841Y-110760244D01*
X118274173Y-110804759D01*
X118295474Y-110887040D01*
X118296617Y-110905353D01*
X118322207Y-110974305D01*
X118370086Y-111019189D01*
X118425110Y-111024007D01*
X118475619Y-111025861D01*
X118540520Y-111054711D01*
X118572167Y-111078216D01*
X118600445Y-111124649D01*
X118597301Y-111196894D01*
X118595140Y-111215568D01*
X118598264Y-111311824D01*
X118617644Y-111411210D01*
X118630359Y-111469535D01*
X118642071Y-111590713D01*
X118641127Y-111720264D01*
X118628868Y-111909893D01*
X118793949Y-111918481D01*
X118852888Y-111922359D01*
X118926049Y-111934271D01*
X118969538Y-111958376D01*
X119000762Y-112001676D01*
X119021395Y-112043264D01*
X119025151Y-112091539D01*
X118993973Y-112150338D01*
X118978731Y-112171975D01*
X118940759Y-112205735D01*
X118884509Y-112220888D01*
X118790901Y-112224393D01*
X118743819Y-112224511D01*
X118687158Y-112229044D01*
X118649201Y-112246555D01*
X118639880Y-112262148D01*
X118625763Y-112285766D01*
X118612659Y-112355400D01*
X118605705Y-112464179D01*
X118600716Y-112620825D01*
X118597313Y-112736452D01*
X118592798Y-112889833D01*
X118828772Y-112903992D01*
X118933539Y-112911888D01*
X118975712Y-112918150D01*
X119020147Y-112924748D01*
X119073052Y-112944105D01*
X119104859Y-112973116D01*
X119133075Y-113018963D01*
X119140061Y-113078881D01*
X119103283Y-113149126D01*
X119073491Y-113179390D01*
X119024928Y-113200850D01*
X118945494Y-113216032D01*
X118822312Y-113228577D01*
X118583030Y-113248509D01*
X118564656Y-113451445D01*
X118557385Y-113565234D01*
X118555238Y-113649662D01*
X118553372Y-113723005D01*
X118555382Y-113866756D01*
X118564482Y-114079131D01*
X118756332Y-114083334D01*
X118788777Y-114084310D01*
X118910354Y-114096461D01*
X118985393Y-114124419D01*
X119021449Y-114172738D01*
X119026073Y-114245973D01*
X119015391Y-114292453D01*
X118964580Y-114355748D01*
X118869911Y-114392328D01*
X118727302Y-114404354D01*
X118578640Y-114404772D01*
X118578640Y-114813047D01*
X118578793Y-114867860D01*
X118580711Y-115012132D01*
X118584480Y-115134262D01*
X118589664Y-115222754D01*
X118595828Y-115266113D01*
X118602992Y-115278549D01*
X118636705Y-115298057D01*
X118704160Y-115308075D01*
X118816697Y-115310903D01*
X118864192Y-115311368D01*
X118976300Y-115320053D01*
X119044785Y-115343530D01*
X119079011Y-115386755D01*
X119088339Y-115454683D01*
X119088155Y-115465332D01*
X119074187Y-115527392D01*
X119031427Y-115569034D01*
X118950641Y-115595763D01*
X118822592Y-115613083D01*
X118759676Y-115619696D01*
X118682987Y-115633183D01*
X118645307Y-115652025D01*
X118635273Y-115680300D01*
X118638134Y-115721365D01*
X118650106Y-115812257D01*
X118669034Y-115930442D01*
X118692337Y-116062041D01*
X118717430Y-116193175D01*
X118741729Y-116309963D01*
X118762652Y-116398525D01*
X118777613Y-116444982D01*
X118787239Y-116460084D01*
X118809856Y-116478187D01*
X118820587Y-116481323D01*
X118849856Y-116489877D01*
X118917050Y-116496528D01*
X119021249Y-116499512D01*
X119172262Y-116500201D01*
X119337056Y-116502143D01*
X119461969Y-116510025D01*
X119545568Y-116526478D01*
X119595641Y-116554135D01*
X119619974Y-116595624D01*
X119626355Y-116653576D01*
X119618364Y-116710985D01*
X119584152Y-116759681D01*
X119516099Y-116790634D01*
X119406820Y-116806937D01*
X119248930Y-116811684D01*
X119175026Y-116812657D01*
X119072065Y-116817907D01*
X119001352Y-116826685D01*
X118975073Y-116837828D01*
X118986600Y-116874734D01*
X119040625Y-116945928D01*
X119131699Y-117032427D01*
X119251886Y-117128056D01*
X119393250Y-117226639D01*
X119547854Y-117322001D01*
X119707763Y-117407966D01*
X119933143Y-117519599D01*
X120353160Y-117520033D01*
X120419340Y-117520408D01*
X120563705Y-117523456D01*
X120684776Y-117529051D01*
X120771441Y-117536578D01*
X120812589Y-117545423D01*
X120818480Y-117550320D01*
X120843378Y-117601235D01*
X120855064Y-117677476D01*
X120861351Y-117743809D01*
X120886142Y-117784788D01*
X120943077Y-117808302D01*
X120990556Y-117818490D01*
X121089245Y-117832414D01*
X121197926Y-117841918D01*
X121213279Y-117842932D01*
X121314912Y-117852420D01*
X121452908Y-117868243D01*
X121539415Y-117879297D01*
X121611100Y-117888457D01*
X121773317Y-117911117D01*
X121950231Y-117935060D01*
X122165659Y-117960744D01*
X122380129Y-117983330D01*
X122566182Y-117999750D01*
X122857698Y-118017482D01*
X123424767Y-118024390D01*
X123982688Y-117992015D01*
X124553445Y-117919471D01*
X124566775Y-117917351D01*
X124832735Y-117874462D01*
X125052810Y-117836515D01*
X125236681Y-117800190D01*
X125394029Y-117762166D01*
X125534535Y-117719122D01*
X125667877Y-117667738D01*
X125803738Y-117604693D01*
X125951797Y-117526666D01*
X126121735Y-117430337D01*
X126323233Y-117312385D01*
X126369832Y-117283143D01*
X126483600Y-117203895D01*
X126623495Y-117099182D01*
X126779012Y-116976963D01*
X126939649Y-116845202D01*
X127035900Y-116761596D01*
X127162719Y-116641447D01*
X127296315Y-116502561D01*
X127445380Y-116335808D01*
X127618608Y-116132057D01*
X127660212Y-116076508D01*
X127728266Y-115974542D01*
X127807033Y-115848602D01*
X127887805Y-115713025D01*
X127961877Y-115582145D01*
X128020540Y-115470299D01*
X128152638Y-115177443D01*
X128274433Y-114832337D01*
X128363268Y-114472462D01*
X128424571Y-114079131D01*
X128433260Y-114006355D01*
X128449314Y-113870910D01*
X128459569Y-113770135D01*
X128463990Y-113688881D01*
X128462540Y-113611999D01*
X128455183Y-113524341D01*
X128441882Y-113410759D01*
X128422602Y-113256102D01*
X128410617Y-113170068D01*
X128381103Y-112998882D01*
X128343708Y-112814920D01*
X128301670Y-112631941D01*
X128258231Y-112463704D01*
X128216631Y-112323968D01*
X128180111Y-112226492D01*
X128044489Y-111941033D01*
X127896490Y-111657829D01*
X127749185Y-111409850D01*
X127595783Y-111186547D01*
X127429492Y-110977372D01*
X127243523Y-110771779D01*
X127061370Y-110589580D01*
X126688684Y-110266530D01*
X126291858Y-109987329D01*
X125864832Y-109748377D01*
X125401548Y-109546072D01*
X124895948Y-109376816D01*
X124772304Y-109338610D01*
X124662500Y-109300271D01*
X124583822Y-109267836D01*
X124548042Y-109245740D01*
X124534241Y-109194260D01*
X124535895Y-109120248D01*
X124535541Y-109054206D01*
X124499394Y-108950348D01*
X124491713Y-108937464D01*
X124449514Y-108863985D01*
X124393161Y-108763310D01*
X124332663Y-108653275D01*
X124250911Y-108508450D01*
X124122345Y-108296270D01*
X123990584Y-108094339D01*
X123868797Y-107923377D01*
X123831133Y-107873268D01*
X123782735Y-107807754D01*
X123756087Y-107770149D01*
X123750892Y-107767368D01*
X123711573Y-107782941D01*
X123644169Y-107830187D01*
X123557871Y-107902949D01*
X123527964Y-107929010D01*
X123353651Y-108056770D01*
X123154747Y-108170781D01*
X122951066Y-108260745D01*
X122762419Y-108316365D01*
X122690698Y-108333462D01*
X122624956Y-108356198D01*
X122599599Y-108375341D01*
X122600521Y-108381922D01*
X122628522Y-108401650D01*
X122656156Y-108419734D01*
X122689172Y-108471282D01*
X122696842Y-108493603D01*
X122692317Y-108575951D01*
X122647295Y-108650936D01*
X122571980Y-108698753D01*
X122557802Y-108703926D01*
X122528115Y-108733508D01*
X122533543Y-108792930D01*
X122561959Y-108871054D01*
X122604285Y-108953824D01*
X122632900Y-109010531D01*
X122652745Y-109115123D01*
X122626130Y-109200617D01*
X122557183Y-109258301D01*
X122450029Y-109279465D01*
X122427219Y-109280095D01*
X122307177Y-109294415D01*
X122151777Y-109324822D01*
X121974031Y-109367583D01*
X121786954Y-109418970D01*
X121603560Y-109475251D01*
X121436862Y-109532697D01*
X121299875Y-109587577D01*
X121205613Y-109636161D01*
X121102565Y-109687218D01*
X120978101Y-109704937D01*
X120844009Y-109674639D01*
X120691287Y-109595614D01*
X120674880Y-109585398D01*
X120527262Y-109498384D01*
X120337447Y-109393196D01*
X120113755Y-109274271D01*
X119864512Y-109146042D01*
X119598038Y-109012947D01*
X119592505Y-109010223D01*
X119461201Y-108945414D01*
X119341906Y-108886243D01*
X119247564Y-108839149D01*
X119191118Y-108810567D01*
X119186330Y-108808159D01*
X119109874Y-108789442D01*
X119053626Y-108810075D01*
X119031575Y-108865263D01*
X119031323Y-108869161D01*
X119016475Y-108922991D01*
X118982810Y-109012024D01*
X118936036Y-109122674D01*
X118881863Y-109241353D01*
X118826000Y-109354475D01*
X118717511Y-109545121D01*
X118566881Y-109753470D01*
X118381501Y-109952892D01*
X118313732Y-110015276D01*
X118206124Y-110105334D01*
X118089089Y-110195754D01*
X117973105Y-110279083D01*
X117868648Y-110347867D01*
X117786194Y-110394653D01*
X117736221Y-110411986D01*
X117711566Y-110422432D01*
X117701256Y-110461424D01*
X116324788Y-110461424D01*
X116302894Y-110426157D01*
X116276540Y-110375411D01*
X116264190Y-110353822D01*
X116238305Y-110339755D01*
X116188751Y-110334185D01*
X116104615Y-110335975D01*
X115974986Y-110343988D01*
X115923161Y-110347213D01*
X115769693Y-110349943D01*
X115662526Y-110336646D01*
X115594653Y-110304503D01*
X115559068Y-110250692D01*
X115548763Y-110172391D01*
X115560364Y-110097713D01*
X115608863Y-110034284D01*
X115699816Y-109998573D01*
X115838229Y-109987381D01*
X115899726Y-109985666D01*
X115975017Y-109974948D01*
X116001828Y-109955689D01*
X116001825Y-109955437D01*
X115987590Y-109916154D01*
X115950966Y-109844573D01*
X115899778Y-109756004D01*
X115797727Y-109588010D01*
X115470466Y-109594013D01*
X115387963Y-109595377D01*
X115272477Y-109595661D01*
X115196295Y-109591565D01*
X115148172Y-109581360D01*
X115116867Y-109563319D01*
X115091134Y-109535712D01*
X115047686Y-109459046D01*
X115050239Y-109376200D01*
X115108568Y-109292336D01*
X115146354Y-109259505D01*
X115195844Y-109236112D01*
X115266877Y-109225397D01*
X115376941Y-109222832D01*
X115575809Y-109222832D01*
X115421518Y-108986129D01*
X115382705Y-108925543D01*
X115316766Y-108817694D01*
X115265026Y-108726800D01*
X115236217Y-108667862D01*
X115218330Y-108577824D01*
X115234625Y-108451920D01*
X115292265Y-108339386D01*
X115298550Y-108331352D01*
X115320180Y-108298884D01*
X115328401Y-108264783D01*
X115321852Y-108216108D01*
X115299170Y-108139916D01*
X115258994Y-108023264D01*
X115172226Y-107775153D01*
X115227743Y-107700794D01*
X115262800Y-107665405D01*
X115369331Y-107609923D01*
X115521521Y-107573296D01*
X115714024Y-107556174D01*
X115941491Y-107559205D01*
X116198575Y-107583037D01*
X116312972Y-107598449D01*
X116502995Y-107627016D01*
X116698123Y-107659412D01*
X116889624Y-107693911D01*
X117068764Y-107728790D01*
X117226808Y-107762321D01*
X117355023Y-107792780D01*
X117444677Y-107818441D01*
X117487035Y-107837580D01*
X117511340Y-107851876D01*
X117571984Y-107863730D01*
X117600750Y-107867941D01*
X117682800Y-107889096D01*
X117803059Y-107925311D01*
X117952640Y-107973495D01*
X118122656Y-108030556D01*
X118304219Y-108093403D01*
X118488442Y-108158945D01*
X118666437Y-108224091D01*
X118829317Y-108285749D01*
X118968194Y-108340827D01*
X119074181Y-108386235D01*
X119077300Y-108387660D01*
X119148005Y-108419950D01*
X119248233Y-108465721D01*
X119357347Y-108515548D01*
X119487189Y-108575910D01*
X119634856Y-108646572D01*
X119781634Y-108718531D01*
X119917443Y-108786722D01*
X120032204Y-108846080D01*
X120115839Y-108891539D01*
X120158269Y-108918036D01*
X120161686Y-108920565D01*
X120172887Y-108921653D01*
X120180843Y-108905280D01*
X120185457Y-108866566D01*
X120186628Y-108800634D01*
X120184258Y-108702605D01*
X120178246Y-108567600D01*
X120168494Y-108390742D01*
X120154902Y-108167152D01*
X120137370Y-107891951D01*
X120128705Y-107743067D01*
X120118749Y-107545448D01*
X120108372Y-107316817D01*
X120098138Y-107070211D01*
X120088612Y-106818669D01*
X120080357Y-106575229D01*
X120076200Y-106451423D01*
X120067998Y-106229181D01*
X120057564Y-105964534D01*
X120045257Y-105665870D01*
X120031437Y-105341579D01*
X120016462Y-105000052D01*
X120000693Y-104649677D01*
X119984487Y-104298844D01*
X119968205Y-103955942D01*
X119967087Y-103932737D01*
X119951990Y-103615530D01*
X119937791Y-103310454D01*
X119924728Y-103023064D01*
X119913038Y-102758912D01*
X119902961Y-102523554D01*
X119894734Y-102322544D01*
X119888595Y-102161435D01*
X119884783Y-102045781D01*
X119883536Y-101981138D01*
X119880292Y-101870992D01*
X119868657Y-101729149D01*
X119851383Y-101609501D01*
X119839886Y-101547057D01*
X119832206Y-101470846D01*
X119841193Y-101417582D01*
X119868251Y-101367107D01*
X119904265Y-101322366D01*
X119953553Y-101300032D01*
X120034056Y-101299837D01*
X120150212Y-101308339D01*
X120169909Y-101549031D01*
X120173741Y-101601957D01*
X120181183Y-101723332D01*
X120190340Y-101888244D01*
X120200844Y-102088871D01*
X120212327Y-102317390D01*
X120224420Y-102565975D01*
X120236754Y-102826805D01*
X120248962Y-103092056D01*
X120260676Y-103353903D01*
X120271526Y-103604524D01*
X120281145Y-103836095D01*
X120289165Y-104040792D01*
X120295216Y-104210792D01*
X120297649Y-104282263D01*
X120309027Y-104577518D01*
X120323092Y-104895715D01*
X120339035Y-105220942D01*
X120356050Y-105537288D01*
X120373329Y-105828841D01*
X120390064Y-106079688D01*
X120390626Y-106087596D01*
X120399472Y-106229019D01*
X120409365Y-106414252D01*
X120419758Y-106631327D01*
X120430102Y-106868278D01*
X120439849Y-107113136D01*
X120448450Y-107353936D01*
X120457537Y-107611724D01*
X120467910Y-107880173D01*
X120478907Y-108142881D01*
X120490129Y-108391371D01*
X120501178Y-108617164D01*
X120511655Y-108811784D01*
X120521161Y-108966753D01*
X120529298Y-109073594D01*
X120536393Y-109087573D01*
X120581174Y-109126420D01*
X120652832Y-109168858D01*
X120678358Y-109182137D01*
X120779797Y-109241138D01*
X120867720Y-109300216D01*
X120962263Y-109371132D01*
X121108411Y-109300909D01*
X121286069Y-109219399D01*
X121452286Y-109153724D01*
X121594359Y-109111124D01*
X121620526Y-109104720D01*
X121730309Y-109077465D01*
X121839712Y-109049864D01*
X121971799Y-109016181D01*
X121911069Y-108885894D01*
X121888931Y-108838543D01*
X121858942Y-108774978D01*
X121844853Y-108745968D01*
X121832228Y-108743915D01*
X121772123Y-108741411D01*
X121671223Y-108739839D01*
X121539148Y-108739324D01*
X121385519Y-108739992D01*
X120931670Y-108743656D01*
X120885317Y-108672912D01*
X120862073Y-108617722D01*
X120855264Y-108535670D01*
X120872888Y-108462598D01*
X120912563Y-108420570D01*
X120914043Y-108420071D01*
X120959447Y-108412958D01*
X121048222Y-108404209D01*
X121168212Y-108394886D01*
X121307266Y-108386053D01*
X121326213Y-108384962D01*
X121458535Y-108376683D01*
X121566227Y-108368815D01*
X121638646Y-108362203D01*
X121665151Y-108357688D01*
X121661581Y-108346557D01*
X121641464Y-108295908D01*
X121609524Y-108219940D01*
X121553897Y-108090168D01*
X121289546Y-108090168D01*
X121237837Y-108089950D01*
X121111977Y-108085085D01*
X121030303Y-108070093D01*
X120983499Y-108040071D01*
X120962248Y-107990118D01*
X120957235Y-107915332D01*
X120960403Y-107859295D01*
X120983484Y-107805071D01*
X121040779Y-107765254D01*
X121072880Y-107752205D01*
X121167116Y-107730590D01*
X121270779Y-107722052D01*
X121274432Y-107722049D01*
X121357923Y-107718813D01*
X121393442Y-107707828D01*
X121389142Y-107686656D01*
X121384468Y-107680032D01*
X121356060Y-107623103D01*
X121326845Y-107545073D01*
X121292643Y-107438886D01*
X121103701Y-107432620D01*
X121015981Y-107430830D01*
X120867981Y-107431044D01*
X120735907Y-107434532D01*
X120697712Y-107435881D01*
X120586653Y-107430709D01*
X120518877Y-107404862D01*
X120485054Y-107352337D01*
X120475853Y-107267124D01*
X120476270Y-107246164D01*
X120489541Y-107172427D01*
X120527318Y-107121993D01*
X120597511Y-107090887D01*
X120708031Y-107075137D01*
X120866787Y-107070770D01*
X120933826Y-107070066D01*
X121033636Y-107065829D01*
X121100435Y-107058611D01*
X121122415Y-107049400D01*
X121115690Y-107033311D01*
X121091977Y-106974753D01*
X121059576Y-106893658D01*
X121047084Y-106863282D01*
X121016186Y-106805685D01*
X120976176Y-106770524D01*
X120915234Y-106753493D01*
X120821540Y-106750289D01*
X120683273Y-106756606D01*
X120601349Y-106750698D01*
X120512055Y-106709834D01*
X120459215Y-106640303D01*
X120449537Y-106552495D01*
X120489728Y-106456801D01*
X120494379Y-106450605D01*
X120560693Y-106404445D01*
X120673786Y-106377052D01*
X120725476Y-106368886D01*
X120790312Y-106354434D01*
X120815652Y-106342260D01*
X120815280Y-106340221D01*
X120798874Y-106301529D01*
X120761843Y-106224715D01*
X120709283Y-106119956D01*
X120646287Y-105997430D01*
X120577948Y-105867314D01*
X120549117Y-105799663D01*
X120533961Y-105665595D01*
X120574907Y-105534099D01*
X120671602Y-105406913D01*
X120693361Y-105383991D01*
X120740541Y-105323810D01*
X120759649Y-105281922D01*
X120760848Y-105271683D01*
X120790348Y-105210859D01*
X120846333Y-105145245D01*
X120911361Y-105096190D01*
X120961831Y-105090850D01*
X121056982Y-105110666D01*
X121185717Y-105154484D01*
X121340528Y-105218940D01*
X121513907Y-105300667D01*
X121698344Y-105396299D01*
X121886333Y-105502469D01*
X122070365Y-105615813D01*
X122268816Y-105751155D01*
X122631576Y-106034642D01*
X122995431Y-106363857D01*
X123353676Y-106732550D01*
X123699606Y-107134471D01*
X123734202Y-107177390D01*
X123865028Y-107343561D01*
X123992177Y-107510582D01*
X124107471Y-107667389D01*
X124202738Y-107802920D01*
X124269800Y-107906110D01*
X124291011Y-107940523D01*
X124332061Y-108002564D01*
X124356818Y-108033534D01*
X124371429Y-108053025D01*
X124410298Y-108114351D01*
X124466631Y-108207507D01*
X124534723Y-108322678D01*
X124608868Y-108450046D01*
X124683360Y-108579797D01*
X124752492Y-108702113D01*
X124810559Y-108807178D01*
X124851855Y-108885176D01*
X124869335Y-108917375D01*
X124928604Y-108998936D01*
X124984689Y-109038460D01*
X125030017Y-109052213D01*
X125105619Y-109078506D01*
X125107260Y-109079139D01*
X125163914Y-109099486D01*
X125254596Y-109130615D01*
X125360468Y-109166056D01*
X125465550Y-109202188D01*
X125618433Y-109260643D01*
X125776280Y-109329017D01*
X125949865Y-109412322D01*
X126149959Y-109515569D01*
X126387336Y-109643771D01*
X126417774Y-109661724D01*
X126502196Y-109716308D01*
X126611124Y-109790284D01*
X126731026Y-109874134D01*
X126848373Y-109958339D01*
X126949634Y-110033381D01*
X127021277Y-110089740D01*
X127029768Y-110096901D01*
X127131505Y-110188100D01*
X127248994Y-110301329D01*
X127376003Y-110429722D01*
X127506299Y-110566416D01*
X127633649Y-110704547D01*
X127751821Y-110837251D01*
X127854581Y-110957663D01*
X127935699Y-111058920D01*
X127988939Y-111134157D01*
X128008071Y-111176511D01*
X128013298Y-111194476D01*
X128044423Y-111238368D01*
X128083383Y-111289662D01*
X128142685Y-111383730D01*
X128215405Y-111509753D01*
X128295751Y-111658061D01*
X128327200Y-111720894D01*
X128399866Y-111884659D01*
X128474889Y-112074676D01*
X128546872Y-112275493D01*
X128610416Y-112471663D01*
X128660124Y-112647734D01*
X128690600Y-112788258D01*
X128699591Y-112842705D01*
X128721906Y-112972542D01*
X128742742Y-113088049D01*
X128743427Y-113091814D01*
X128754445Y-113188647D01*
X128762290Y-113327225D01*
X128766963Y-113493507D01*
X128768463Y-113673452D01*
X128768319Y-113688881D01*
X128766792Y-113853018D01*
X128761948Y-114018164D01*
X128753931Y-114154849D01*
X128742742Y-114249031D01*
X128733531Y-114299234D01*
X128711093Y-114426707D01*
X128690600Y-114548822D01*
X128645080Y-114765764D01*
X128543268Y-115093234D01*
X128401773Y-115435631D01*
X128225088Y-115783489D01*
X128017710Y-116127342D01*
X127784131Y-116457726D01*
X127719845Y-116537163D01*
X127614107Y-116656496D01*
X127491246Y-116786026D01*
X127358208Y-116919281D01*
X127221941Y-117049790D01*
X127089392Y-117171082D01*
X126967510Y-117276686D01*
X126863241Y-117360129D01*
X126783534Y-117414941D01*
X126735336Y-117434649D01*
X126727330Y-117435590D01*
X126705507Y-117460211D01*
X126684201Y-117487227D01*
X126619445Y-117535212D01*
X126519427Y-117598614D01*
X126392441Y-117673016D01*
X126246784Y-117754003D01*
X126090750Y-117837161D01*
X125932634Y-117918075D01*
X125780733Y-117992328D01*
X125643341Y-118055505D01*
X125528754Y-118103193D01*
X125445267Y-118130974D01*
X125377394Y-118152492D01*
X125291564Y-118189238D01*
X125230800Y-118214442D01*
X125169331Y-118227340D01*
X125159165Y-118227594D01*
X125127864Y-118236705D01*
X125129031Y-118264006D01*
X125165504Y-118316461D01*
X125240123Y-118401036D01*
X125340348Y-118512514D01*
X125475359Y-118667898D01*
X125622592Y-118841718D01*
X125774958Y-119025265D01*
X125925371Y-119209829D01*
X126066740Y-119386700D01*
X126191978Y-119547170D01*
X126293997Y-119682528D01*
X126365708Y-119784065D01*
X126400490Y-119834726D01*
X126454139Y-119908551D01*
X126463414Y-119921152D01*
X126518675Y-120004757D01*
X126591876Y-120124820D01*
X126676494Y-120269992D01*
X126766009Y-120428929D01*
X126853897Y-120590283D01*
X126933637Y-120742709D01*
X126941796Y-120758693D01*
X127005047Y-120879470D01*
X127051418Y-120958494D01*
X127087478Y-121004305D01*
X127119795Y-121025443D01*
X127154939Y-121030449D01*
X127212134Y-121036859D01*
X127307032Y-121056668D01*
X127413423Y-121085267D01*
X127447041Y-121094877D01*
X127561840Y-121123669D01*
X127698325Y-121153877D01*
X127841159Y-121182521D01*
X127975004Y-121206621D01*
X128084522Y-121223195D01*
X128154374Y-121229263D01*
X128178561Y-121232448D01*
X128211007Y-121254783D01*
X128211327Y-121255472D01*
X128244529Y-121270827D01*
X128318219Y-121286510D01*
X128417129Y-121299229D01*
X128521504Y-121311692D01*
X128608440Y-121326677D01*
X128657820Y-121340800D01*
X128659395Y-121341557D01*
X128706951Y-121355644D01*
X128797079Y-121376218D01*
X128917463Y-121400633D01*
X129055786Y-121426244D01*
X129064733Y-121427832D01*
X129203907Y-121453667D01*
X129325813Y-121478296D01*
X129417591Y-121498999D01*
X129466377Y-121513058D01*
X129468449Y-121513929D01*
X129537320Y-121536350D01*
X129622118Y-121556624D01*
X129632178Y-121558730D01*
X129702179Y-121581378D01*
X129742030Y-121607828D01*
X129761587Y-121674224D01*
X129755764Y-121762424D01*
X129724756Y-121837845D01*
X129702186Y-121863456D01*
X129669161Y-121877126D01*
X129613682Y-121874408D01*
X129519460Y-121856807D01*
X129412708Y-121835141D01*
X129304665Y-121814792D01*
X129202422Y-121798160D01*
X129078237Y-121780442D01*
X129033428Y-121773140D01*
X128962595Y-121755864D01*
X128928444Y-121738908D01*
X128901059Y-121725484D01*
X128831592Y-121708349D01*
X128737275Y-121692953D01*
X128688690Y-121686604D01*
X128592777Y-121673796D01*
X128535908Y-121665449D01*
X128505622Y-121659622D01*
X128489454Y-121654375D01*
X128484362Y-121652629D01*
X128432495Y-121640168D01*
X128340075Y-121620989D01*
X128219372Y-121597444D01*
X128082658Y-121571885D01*
X127942203Y-121546667D01*
X127810280Y-121524142D01*
X127742477Y-121512394D01*
X127633120Y-121490859D01*
X127551981Y-121471495D01*
X127512955Y-121457418D01*
X127469439Y-121438757D01*
X127400598Y-121422946D01*
X127326666Y-121412884D01*
X127267642Y-121411284D01*
X127243523Y-121420859D01*
X127249439Y-121447697D01*
X127269983Y-121515204D01*
X127292791Y-121582736D01*
X127300156Y-121604544D01*
X127324312Y-121677975D01*
G37*
%TD*%
M02*
