%TF.GenerationSoftware,KiCad,Pcbnew,(6.0.10)*%
%TF.CreationDate,2023-02-02T13:59:29+08:00*%
%TF.ProjectId,AlarmTag,416c6172-6d54-4616-972e-6b696361645f,rev?*%
%TF.SameCoordinates,Original*%
%TF.FileFunction,Drillmap*%
%TF.FilePolarity,Positive*%
%FSLAX45Y45*%
G04 Gerber Fmt 4.5, Leading zero omitted, Abs format (unit mm)*
G04 Created by KiCad (PCBNEW (6.0.10)) date 2023-02-02 13:59:29*
%MOMM*%
%LPD*%
G01*
G04 APERTURE LIST*
%ADD10C,0.100000*%
%ADD11C,0.200000*%
G04 APERTURE END LIST*
D10*
X10697726Y-13273477D02*
G75*
G03*
X10697726Y-13273477I-133436J0D01*
G01*
X13984377Y-13589393D02*
G75*
G03*
X13984377Y-10033393I-1778000J1778000D01*
G01*
X10428377Y-10033393D02*
G75*
G03*
X10428377Y-13589393I1778000J-1778000D01*
G01*
X13983455Y-13266392D02*
G75*
G03*
X13983455Y-13266392I-133436J0D01*
G01*
X10428377Y-13589393D02*
X13984377Y-13589393D01*
X10690965Y-10362091D02*
G75*
G03*
X10690965Y-10362091I-133436J0D01*
G01*
X10428377Y-10033393D02*
X13984377Y-10033393D01*
X13976694Y-10355006D02*
G75*
G03*
X13976694Y-10355006I-133436J0D01*
G01*
D11*
X9944524Y-13904869D02*
X9944524Y-13704869D01*
X9992143Y-13704869D01*
X10020715Y-13714393D01*
X10039762Y-13733440D01*
X10049286Y-13752488D01*
X10058810Y-13790583D01*
X10058810Y-13819155D01*
X10049286Y-13857250D01*
X10039762Y-13876297D01*
X10020715Y-13895345D01*
X9992143Y-13904869D01*
X9944524Y-13904869D01*
X10144524Y-13904869D02*
X10144524Y-13771535D01*
X10144524Y-13809631D02*
X10154048Y-13790583D01*
X10163572Y-13781059D01*
X10182620Y-13771535D01*
X10201667Y-13771535D01*
X10268334Y-13904869D02*
X10268334Y-13771535D01*
X10268334Y-13704869D02*
X10258810Y-13714393D01*
X10268334Y-13723916D01*
X10277858Y-13714393D01*
X10268334Y-13704869D01*
X10268334Y-13723916D01*
X10392143Y-13904869D02*
X10373096Y-13895345D01*
X10363572Y-13876297D01*
X10363572Y-13704869D01*
X10496905Y-13904869D02*
X10477858Y-13895345D01*
X10468334Y-13876297D01*
X10468334Y-13704869D01*
X10725477Y-13904869D02*
X10725477Y-13704869D01*
X10792143Y-13847726D01*
X10858810Y-13704869D01*
X10858810Y-13904869D01*
X11039762Y-13904869D02*
X11039762Y-13800107D01*
X11030239Y-13781059D01*
X11011191Y-13771535D01*
X10973096Y-13771535D01*
X10954048Y-13781059D01*
X11039762Y-13895345D02*
X11020715Y-13904869D01*
X10973096Y-13904869D01*
X10954048Y-13895345D01*
X10944524Y-13876297D01*
X10944524Y-13857250D01*
X10954048Y-13838202D01*
X10973096Y-13828678D01*
X11020715Y-13828678D01*
X11039762Y-13819155D01*
X11135001Y-13771535D02*
X11135001Y-13971535D01*
X11135001Y-13781059D02*
X11154048Y-13771535D01*
X11192143Y-13771535D01*
X11211191Y-13781059D01*
X11220715Y-13790583D01*
X11230239Y-13809631D01*
X11230239Y-13866774D01*
X11220715Y-13885821D01*
X11211191Y-13895345D01*
X11192143Y-13904869D01*
X11154048Y-13904869D01*
X11135001Y-13895345D01*
X11315953Y-13885821D02*
X11325477Y-13895345D01*
X11315953Y-13904869D01*
X11306429Y-13895345D01*
X11315953Y-13885821D01*
X11315953Y-13904869D01*
X11315953Y-13781059D02*
X11325477Y-13790583D01*
X11315953Y-13800107D01*
X11306429Y-13790583D01*
X11315953Y-13781059D01*
X11315953Y-13800107D01*
M02*
