M48
; DRILL file {KiCad (6.0.10)} date Thu Feb  2 13:59:35 2023
; FORMAT={-:-/ absolute / metric / decimal}
; #@! TF.CreationDate,2023-02-02T13:59:35+08:00
; #@! TF.GenerationSoftware,Kicad,Pcbnew,(6.0.10)
; #@! TF.FileFunction,Plated,1,2,PTH
FMAT,2
METRIC
; #@! TA.AperFunction,Plated,PTH,ComponentDrill
T1C0.200
; #@! TA.AperFunction,Plated,PTH,ViaDrill
T2C0.400
; #@! TA.AperFunction,Plated,PTH,ComponentDrill
T3C0.500
; #@! TA.AperFunction,Plated,PTH,ComponentDrill
T4C1.100
%
G90
G05
T1
X118.185Y-115.257
X118.185Y-116.782
X118.947Y-114.495
X118.947Y-116.02
X118.947Y-117.545
X119.71Y-115.257
X119.71Y-116.782
X120.472Y-114.495
X120.472Y-116.02
X120.472Y-117.545
X121.235Y-115.257
X121.235Y-116.782
T2
X100.057Y-121.03
X113.835Y-111.213
X115.331Y-116.288
X132.08Y-109.22
X133.811Y-116.783
T3
X100.241Y-108.764
X100.241Y-109.764
T4
X117.197Y-129.83
X117.197Y-134.33
X123.697Y-129.83
X123.697Y-134.33
T0
M30
