%TF.GenerationSoftware,KiCad,Pcbnew,(6.0.10)*%
%TF.CreationDate,2023-02-02T13:59:13+08:00*%
%TF.ProjectId,AlarmTag,416c6172-6d54-4616-972e-6b696361645f,rev?*%
%TF.SameCoordinates,Original*%
%TF.FileFunction,Copper,L2,Bot*%
%TF.FilePolarity,Positive*%
%FSLAX46Y46*%
G04 Gerber Fmt 4.6, Leading zero omitted, Abs format (unit mm)*
G04 Created by KiCad (PCBNEW (6.0.10)) date 2023-02-02 13:59:13*
%MOMM*%
%LPD*%
G01*
G04 APERTURE LIST*
%TA.AperFunction,HeatsinkPad*%
%ADD10C,0.475000*%
%TD*%
%TA.AperFunction,ComponentPad*%
%ADD11C,2.000000*%
%TD*%
%TA.AperFunction,ComponentPad*%
%ADD12R,0.850000X0.850000*%
%TD*%
%TA.AperFunction,ComponentPad*%
%ADD13O,0.850000X0.850000*%
%TD*%
%TA.AperFunction,ViaPad*%
%ADD14C,0.800000*%
%TD*%
%TA.AperFunction,Conductor*%
%ADD15C,0.500000*%
%TD*%
G04 APERTURE END LIST*
D10*
%TO.P,MCU1,39,GND*%
%TO.N,GND*%
X118185000Y-116782500D03*
X118947500Y-117545000D03*
X118947500Y-114495000D03*
X118947500Y-116020000D03*
X118185000Y-115257500D03*
X120472500Y-117545000D03*
X119710000Y-116782500D03*
X121235000Y-115257500D03*
X121235000Y-116782500D03*
X119710000Y-115257500D03*
X120472500Y-116020000D03*
X120472500Y-114495000D03*
%TD*%
D11*
%TO.P,SW1,1,1*%
%TO.N,Net-(R6-Pad1)*%
X123697167Y-134330000D03*
X117197167Y-134330000D03*
%TO.P,SW1,2,2*%
%TO.N,GND*%
X123697167Y-129830000D03*
X117197167Y-129830000D03*
%TD*%
D12*
%TO.P,J0,1,Pin_1*%
%TO.N,+3V3*%
X100240871Y-109763693D03*
D13*
%TO.P,J0,2,Pin_2*%
%TO.N,GND*%
X100240871Y-108763693D03*
%TD*%
D14*
%TO.N,Net-(C2-Pad2)*%
X113834958Y-111213341D03*
X133810745Y-116782553D03*
X100057303Y-121030245D03*
%TO.N,/Buzzer Enable*%
X132080000Y-109220000D03*
X115330644Y-116288370D03*
%TD*%
D15*
%TO.N,Net-(C2-Pad2)*%
X124460000Y-119380000D02*
X125732500Y-118107500D01*
X113834958Y-111213341D02*
X113834958Y-110271353D01*
X115848484Y-119380000D02*
X124460000Y-119380000D01*
X127057447Y-116782553D02*
X133810745Y-116782553D01*
X113834958Y-111213341D02*
X113834958Y-117366474D01*
X112824993Y-109261388D02*
X110588477Y-109261388D01*
X113834958Y-117366474D02*
X115848484Y-119380000D01*
X125732500Y-118107500D02*
X127057447Y-116782553D01*
X113834958Y-110271353D02*
X112824993Y-109261388D01*
X107460161Y-118599839D02*
X100762072Y-118599839D01*
X100057303Y-119304608D02*
X100057303Y-121030245D01*
X109220000Y-116840000D02*
X107460161Y-118599839D01*
X100762072Y-118599839D02*
X100057303Y-119304608D01*
X110588477Y-109261388D02*
X109220000Y-110629865D01*
X109220000Y-110629865D02*
X109220000Y-116840000D01*
%TO.N,/Buzzer Enable*%
X117052207Y-109643740D02*
X117475947Y-109220000D01*
X115330644Y-111365303D02*
X117052207Y-109643740D01*
X117475947Y-109220000D02*
X132080000Y-109220000D01*
X115330644Y-116288370D02*
X115330644Y-111365303D01*
%TD*%
M02*
