%TF.GenerationSoftware,KiCad,Pcbnew,(6.0.10)*%
%TF.CreationDate,2023-02-02T13:59:29+08:00*%
%TF.ProjectId,AlarmTag,416c6172-6d54-4616-972e-6b696361645f,rev?*%
%TF.SameCoordinates,Original*%
%TF.FileFunction,Drillmap*%
%TF.FilePolarity,Positive*%
%FSLAX45Y45*%
G04 Gerber Fmt 4.5, Leading zero omitted, Abs format (unit mm)*
G04 Created by KiCad (PCBNEW (6.0.10)) date 2023-02-02 13:59:29*
%MOMM*%
%LPD*%
G01*
G04 APERTURE LIST*
%ADD10C,0.100000*%
%ADD11C,0.200000*%
%ADD12C,0.020000*%
%ADD13C,0.040000*%
%ADD14C,0.050000*%
%ADD15C,0.110000*%
G04 APERTURE END LIST*
D10*
X10697726Y-13273477D02*
G75*
G03*
X10697726Y-13273477I-133436J0D01*
G01*
X13984377Y-13589393D02*
G75*
G03*
X13984377Y-10033393I-1778000J1778000D01*
G01*
X10428377Y-10033393D02*
G75*
G03*
X10428377Y-13589393I1778000J-1778000D01*
G01*
X13983455Y-13266392D02*
G75*
G03*
X13983455Y-13266392I-133436J0D01*
G01*
X10428377Y-13589393D02*
X13984377Y-13589393D01*
X10690965Y-10362091D02*
G75*
G03*
X10690965Y-10362091I-133436J0D01*
G01*
X10428377Y-10033393D02*
X13984377Y-10033393D01*
X13976694Y-10355006D02*
G75*
G03*
X13976694Y-10355006I-133436J0D01*
G01*
D11*
D12*
X11808500Y-11515750D02*
X11828500Y-11535750D01*
X11828500Y-11515750D02*
X11808500Y-11535750D01*
X11808500Y-11668250D02*
X11828500Y-11688250D01*
X11828500Y-11668250D02*
X11808500Y-11688250D01*
X11884750Y-11439500D02*
X11904750Y-11459500D01*
X11904750Y-11439500D02*
X11884750Y-11459500D01*
X11884750Y-11592000D02*
X11904750Y-11612000D01*
X11904750Y-11592000D02*
X11884750Y-11612000D01*
X11884750Y-11744500D02*
X11904750Y-11764500D01*
X11904750Y-11744500D02*
X11884750Y-11764500D01*
X11961000Y-11515750D02*
X11981000Y-11535750D01*
X11981000Y-11515750D02*
X11961000Y-11535750D01*
X11961000Y-11668250D02*
X11981000Y-11688250D01*
X11981000Y-11668250D02*
X11961000Y-11688250D01*
X12037250Y-11439500D02*
X12057250Y-11459500D01*
X12057250Y-11439500D02*
X12037250Y-11459500D01*
X12037250Y-11592000D02*
X12057250Y-11612000D01*
X12057250Y-11592000D02*
X12037250Y-11612000D01*
X12037250Y-11744500D02*
X12057250Y-11764500D01*
X12057250Y-11744500D02*
X12037250Y-11764500D01*
X12113500Y-11515750D02*
X12133500Y-11535750D01*
X12133500Y-11515750D02*
X12113500Y-11535750D01*
X12113500Y-11668250D02*
X12133500Y-11688250D01*
X12133500Y-11668250D02*
X12113500Y-11688250D01*
D13*
X10025730Y-12103024D02*
G75*
G03*
X10025730Y-12103024I-20000J0D01*
G01*
X11403496Y-11121334D02*
G75*
G03*
X11403496Y-11121334I-20000J0D01*
G01*
X11553064Y-11628837D02*
G75*
G03*
X11553064Y-11628837I-20000J0D01*
G01*
X13228000Y-10922000D02*
G75*
G03*
X13228000Y-10922000I-20000J0D01*
G01*
X13401074Y-11678255D02*
G75*
G03*
X13401074Y-11678255I-20000J0D01*
G01*
D14*
X10024087Y-10851369D02*
X10024087Y-10901369D01*
X9999087Y-10876369D02*
X10049087Y-10876369D01*
X10024087Y-10951369D02*
X10024087Y-11001369D01*
X9999087Y-10976369D02*
X10049087Y-10976369D01*
D15*
X11758608Y-13021891D02*
X11758608Y-12944109D01*
X11680825Y-12944109D01*
X11680825Y-13021891D01*
X11758608Y-13021891D01*
X11758608Y-13471891D02*
X11758608Y-13394109D01*
X11680825Y-13394109D01*
X11680825Y-13471891D01*
X11758608Y-13471891D01*
X12408608Y-13021891D02*
X12408608Y-12944109D01*
X12330825Y-12944109D01*
X12330825Y-13021891D01*
X12408608Y-13021891D01*
X12408608Y-13471891D02*
X12408608Y-13394109D01*
X12330825Y-13394109D01*
X12330825Y-13471891D01*
X12408608Y-13471891D01*
D11*
X9944524Y-13904869D02*
X9944524Y-13704869D01*
X9992143Y-13704869D01*
X10020715Y-13714393D01*
X10039762Y-13733440D01*
X10049286Y-13752488D01*
X10058810Y-13790583D01*
X10058810Y-13819155D01*
X10049286Y-13857250D01*
X10039762Y-13876297D01*
X10020715Y-13895345D01*
X9992143Y-13904869D01*
X9944524Y-13904869D01*
X10144524Y-13904869D02*
X10144524Y-13771535D01*
X10144524Y-13809631D02*
X10154048Y-13790583D01*
X10163572Y-13781059D01*
X10182620Y-13771535D01*
X10201667Y-13771535D01*
X10268334Y-13904869D02*
X10268334Y-13771535D01*
X10268334Y-13704869D02*
X10258810Y-13714393D01*
X10268334Y-13723916D01*
X10277858Y-13714393D01*
X10268334Y-13704869D01*
X10268334Y-13723916D01*
X10392143Y-13904869D02*
X10373096Y-13895345D01*
X10363572Y-13876297D01*
X10363572Y-13704869D01*
X10496905Y-13904869D02*
X10477858Y-13895345D01*
X10468334Y-13876297D01*
X10468334Y-13704869D01*
X10725477Y-13904869D02*
X10725477Y-13704869D01*
X10792143Y-13847726D01*
X10858810Y-13704869D01*
X10858810Y-13904869D01*
X11039762Y-13904869D02*
X11039762Y-13800107D01*
X11030239Y-13781059D01*
X11011191Y-13771535D01*
X10973096Y-13771535D01*
X10954048Y-13781059D01*
X11039762Y-13895345D02*
X11020715Y-13904869D01*
X10973096Y-13904869D01*
X10954048Y-13895345D01*
X10944524Y-13876297D01*
X10944524Y-13857250D01*
X10954048Y-13838202D01*
X10973096Y-13828678D01*
X11020715Y-13828678D01*
X11039762Y-13819155D01*
X11135001Y-13771535D02*
X11135001Y-13971535D01*
X11135001Y-13781059D02*
X11154048Y-13771535D01*
X11192143Y-13771535D01*
X11211191Y-13781059D01*
X11220715Y-13790583D01*
X11230239Y-13809631D01*
X11230239Y-13866774D01*
X11220715Y-13885821D01*
X11211191Y-13895345D01*
X11192143Y-13904869D01*
X11154048Y-13904869D01*
X11135001Y-13895345D01*
X11315953Y-13885821D02*
X11325477Y-13895345D01*
X11315953Y-13904869D01*
X11306429Y-13895345D01*
X11315953Y-13885821D01*
X11315953Y-13904869D01*
X11315953Y-13781059D02*
X11325477Y-13790583D01*
X11315953Y-13800107D01*
X11306429Y-13790583D01*
X11315953Y-13781059D01*
X11315953Y-13800107D01*
D12*
X9666905Y-14224393D02*
X9686905Y-14244393D01*
X9686905Y-14224393D02*
X9666905Y-14244393D01*
D11*
X9982620Y-14124869D02*
X10001667Y-14124869D01*
X10020715Y-14134393D01*
X10030239Y-14143916D01*
X10039762Y-14162964D01*
X10049286Y-14201059D01*
X10049286Y-14248678D01*
X10039762Y-14286774D01*
X10030239Y-14305821D01*
X10020715Y-14315345D01*
X10001667Y-14324869D01*
X9982620Y-14324869D01*
X9963572Y-14315345D01*
X9954048Y-14305821D01*
X9944524Y-14286774D01*
X9935001Y-14248678D01*
X9935001Y-14201059D01*
X9944524Y-14162964D01*
X9954048Y-14143916D01*
X9963572Y-14134393D01*
X9982620Y-14124869D01*
X10135001Y-14305821D02*
X10144524Y-14315345D01*
X10135001Y-14324869D01*
X10125477Y-14315345D01*
X10135001Y-14305821D01*
X10135001Y-14324869D01*
X10220715Y-14143916D02*
X10230239Y-14134393D01*
X10249286Y-14124869D01*
X10296905Y-14124869D01*
X10315953Y-14134393D01*
X10325477Y-14143916D01*
X10335001Y-14162964D01*
X10335001Y-14182012D01*
X10325477Y-14210583D01*
X10211191Y-14324869D01*
X10335001Y-14324869D01*
X10458810Y-14124869D02*
X10477858Y-14124869D01*
X10496905Y-14134393D01*
X10506429Y-14143916D01*
X10515953Y-14162964D01*
X10525477Y-14201059D01*
X10525477Y-14248678D01*
X10515953Y-14286774D01*
X10506429Y-14305821D01*
X10496905Y-14315345D01*
X10477858Y-14324869D01*
X10458810Y-14324869D01*
X10439762Y-14315345D01*
X10430239Y-14305821D01*
X10420715Y-14286774D01*
X10411191Y-14248678D01*
X10411191Y-14201059D01*
X10420715Y-14162964D01*
X10430239Y-14143916D01*
X10439762Y-14134393D01*
X10458810Y-14124869D01*
X10649286Y-14124869D02*
X10668334Y-14124869D01*
X10687381Y-14134393D01*
X10696905Y-14143916D01*
X10706429Y-14162964D01*
X10715953Y-14201059D01*
X10715953Y-14248678D01*
X10706429Y-14286774D01*
X10696905Y-14305821D01*
X10687381Y-14315345D01*
X10668334Y-14324869D01*
X10649286Y-14324869D01*
X10630239Y-14315345D01*
X10620715Y-14305821D01*
X10611191Y-14286774D01*
X10601667Y-14248678D01*
X10601667Y-14201059D01*
X10611191Y-14162964D01*
X10620715Y-14143916D01*
X10630239Y-14134393D01*
X10649286Y-14124869D01*
X10801667Y-14324869D02*
X10801667Y-14191535D01*
X10801667Y-14210583D02*
X10811191Y-14201059D01*
X10830239Y-14191535D01*
X10858810Y-14191535D01*
X10877858Y-14201059D01*
X10887381Y-14220107D01*
X10887381Y-14324869D01*
X10887381Y-14220107D02*
X10896905Y-14201059D01*
X10915953Y-14191535D01*
X10944524Y-14191535D01*
X10963572Y-14201059D01*
X10973096Y-14220107D01*
X10973096Y-14324869D01*
X11068334Y-14324869D02*
X11068334Y-14191535D01*
X11068334Y-14210583D02*
X11077858Y-14201059D01*
X11096905Y-14191535D01*
X11125477Y-14191535D01*
X11144524Y-14201059D01*
X11154048Y-14220107D01*
X11154048Y-14324869D01*
X11154048Y-14220107D02*
X11163572Y-14201059D01*
X11182620Y-14191535D01*
X11211191Y-14191535D01*
X11230239Y-14201059D01*
X11239762Y-14220107D01*
X11239762Y-14324869D01*
X11630239Y-14115345D02*
X11458810Y-14372488D01*
X11887381Y-14124869D02*
X11906429Y-14124869D01*
X11925477Y-14134393D01*
X11935000Y-14143916D01*
X11944524Y-14162964D01*
X11954048Y-14201059D01*
X11954048Y-14248678D01*
X11944524Y-14286774D01*
X11935000Y-14305821D01*
X11925477Y-14315345D01*
X11906429Y-14324869D01*
X11887381Y-14324869D01*
X11868334Y-14315345D01*
X11858810Y-14305821D01*
X11849286Y-14286774D01*
X11839762Y-14248678D01*
X11839762Y-14201059D01*
X11849286Y-14162964D01*
X11858810Y-14143916D01*
X11868334Y-14134393D01*
X11887381Y-14124869D01*
X12039762Y-14305821D02*
X12049286Y-14315345D01*
X12039762Y-14324869D01*
X12030239Y-14315345D01*
X12039762Y-14305821D01*
X12039762Y-14324869D01*
X12173096Y-14124869D02*
X12192143Y-14124869D01*
X12211191Y-14134393D01*
X12220715Y-14143916D01*
X12230239Y-14162964D01*
X12239762Y-14201059D01*
X12239762Y-14248678D01*
X12230239Y-14286774D01*
X12220715Y-14305821D01*
X12211191Y-14315345D01*
X12192143Y-14324869D01*
X12173096Y-14324869D01*
X12154048Y-14315345D01*
X12144524Y-14305821D01*
X12135000Y-14286774D01*
X12125477Y-14248678D01*
X12125477Y-14201059D01*
X12135000Y-14162964D01*
X12144524Y-14143916D01*
X12154048Y-14134393D01*
X12173096Y-14124869D01*
X12363572Y-14124869D02*
X12382619Y-14124869D01*
X12401667Y-14134393D01*
X12411191Y-14143916D01*
X12420715Y-14162964D01*
X12430239Y-14201059D01*
X12430239Y-14248678D01*
X12420715Y-14286774D01*
X12411191Y-14305821D01*
X12401667Y-14315345D01*
X12382619Y-14324869D01*
X12363572Y-14324869D01*
X12344524Y-14315345D01*
X12335000Y-14305821D01*
X12325477Y-14286774D01*
X12315953Y-14248678D01*
X12315953Y-14201059D01*
X12325477Y-14162964D01*
X12335000Y-14143916D01*
X12344524Y-14134393D01*
X12363572Y-14124869D01*
X12496905Y-14124869D02*
X12630239Y-14124869D01*
X12544524Y-14324869D01*
X12715953Y-14324869D02*
X12754048Y-14324869D01*
X12773096Y-14315345D01*
X12782619Y-14305821D01*
X12801667Y-14277250D01*
X12811191Y-14239155D01*
X12811191Y-14162964D01*
X12801667Y-14143916D01*
X12792143Y-14134393D01*
X12773096Y-14124869D01*
X12735000Y-14124869D01*
X12715953Y-14134393D01*
X12706429Y-14143916D01*
X12696905Y-14162964D01*
X12696905Y-14210583D01*
X12706429Y-14229631D01*
X12715953Y-14239155D01*
X12735000Y-14248678D01*
X12773096Y-14248678D01*
X12792143Y-14239155D01*
X12801667Y-14229631D01*
X12811191Y-14210583D01*
X12887381Y-14124869D02*
X12887381Y-14162964D01*
X12963572Y-14124869D02*
X12963572Y-14162964D01*
X13258810Y-14401059D02*
X13249286Y-14391535D01*
X13230239Y-14362964D01*
X13220715Y-14343916D01*
X13211191Y-14315345D01*
X13201667Y-14267726D01*
X13201667Y-14229631D01*
X13211191Y-14182012D01*
X13220715Y-14153440D01*
X13230239Y-14134393D01*
X13249286Y-14105821D01*
X13258810Y-14096297D01*
X13439762Y-14324869D02*
X13325477Y-14324869D01*
X13382619Y-14324869D02*
X13382619Y-14124869D01*
X13363572Y-14153440D01*
X13344524Y-14172488D01*
X13325477Y-14182012D01*
X13515953Y-14143916D02*
X13525477Y-14134393D01*
X13544524Y-14124869D01*
X13592143Y-14124869D01*
X13611191Y-14134393D01*
X13620715Y-14143916D01*
X13630239Y-14162964D01*
X13630239Y-14182012D01*
X13620715Y-14210583D01*
X13506429Y-14324869D01*
X13630239Y-14324869D01*
X13868334Y-14324869D02*
X13868334Y-14124869D01*
X13954048Y-14324869D02*
X13954048Y-14220107D01*
X13944524Y-14201059D01*
X13925477Y-14191535D01*
X13896905Y-14191535D01*
X13877858Y-14201059D01*
X13868334Y-14210583D01*
X14077858Y-14324869D02*
X14058810Y-14315345D01*
X14049286Y-14305821D01*
X14039762Y-14286774D01*
X14039762Y-14229631D01*
X14049286Y-14210583D01*
X14058810Y-14201059D01*
X14077858Y-14191535D01*
X14106429Y-14191535D01*
X14125477Y-14201059D01*
X14135000Y-14210583D01*
X14144524Y-14229631D01*
X14144524Y-14286774D01*
X14135000Y-14305821D01*
X14125477Y-14315345D01*
X14106429Y-14324869D01*
X14077858Y-14324869D01*
X14258810Y-14324869D02*
X14239762Y-14315345D01*
X14230239Y-14296297D01*
X14230239Y-14124869D01*
X14411191Y-14315345D02*
X14392143Y-14324869D01*
X14354048Y-14324869D01*
X14335000Y-14315345D01*
X14325477Y-14296297D01*
X14325477Y-14220107D01*
X14335000Y-14201059D01*
X14354048Y-14191535D01*
X14392143Y-14191535D01*
X14411191Y-14201059D01*
X14420715Y-14220107D01*
X14420715Y-14239155D01*
X14325477Y-14258202D01*
X14496905Y-14315345D02*
X14515953Y-14324869D01*
X14554048Y-14324869D01*
X14573096Y-14315345D01*
X14582619Y-14296297D01*
X14582619Y-14286774D01*
X14573096Y-14267726D01*
X14554048Y-14258202D01*
X14525477Y-14258202D01*
X14506429Y-14248678D01*
X14496905Y-14229631D01*
X14496905Y-14220107D01*
X14506429Y-14201059D01*
X14525477Y-14191535D01*
X14554048Y-14191535D01*
X14573096Y-14201059D01*
X14649286Y-14401059D02*
X14658810Y-14391535D01*
X14677858Y-14362964D01*
X14687381Y-14343916D01*
X14696905Y-14315345D01*
X14706429Y-14267726D01*
X14706429Y-14229631D01*
X14696905Y-14182012D01*
X14687381Y-14153440D01*
X14677858Y-14134393D01*
X14658810Y-14105821D01*
X14649286Y-14096297D01*
D13*
X9686905Y-14498393D02*
G75*
G03*
X9686905Y-14498393I-20000J0D01*
G01*
D11*
X9982620Y-14388869D02*
X10001667Y-14388869D01*
X10020715Y-14398393D01*
X10030239Y-14407916D01*
X10039762Y-14426964D01*
X10049286Y-14465059D01*
X10049286Y-14512678D01*
X10039762Y-14550774D01*
X10030239Y-14569821D01*
X10020715Y-14579345D01*
X10001667Y-14588869D01*
X9982620Y-14588869D01*
X9963572Y-14579345D01*
X9954048Y-14569821D01*
X9944524Y-14550774D01*
X9935001Y-14512678D01*
X9935001Y-14465059D01*
X9944524Y-14426964D01*
X9954048Y-14407916D01*
X9963572Y-14398393D01*
X9982620Y-14388869D01*
X10135001Y-14569821D02*
X10144524Y-14579345D01*
X10135001Y-14588869D01*
X10125477Y-14579345D01*
X10135001Y-14569821D01*
X10135001Y-14588869D01*
X10315953Y-14455535D02*
X10315953Y-14588869D01*
X10268334Y-14379345D02*
X10220715Y-14522202D01*
X10344524Y-14522202D01*
X10458810Y-14388869D02*
X10477858Y-14388869D01*
X10496905Y-14398393D01*
X10506429Y-14407916D01*
X10515953Y-14426964D01*
X10525477Y-14465059D01*
X10525477Y-14512678D01*
X10515953Y-14550774D01*
X10506429Y-14569821D01*
X10496905Y-14579345D01*
X10477858Y-14588869D01*
X10458810Y-14588869D01*
X10439762Y-14579345D01*
X10430239Y-14569821D01*
X10420715Y-14550774D01*
X10411191Y-14512678D01*
X10411191Y-14465059D01*
X10420715Y-14426964D01*
X10430239Y-14407916D01*
X10439762Y-14398393D01*
X10458810Y-14388869D01*
X10649286Y-14388869D02*
X10668334Y-14388869D01*
X10687381Y-14398393D01*
X10696905Y-14407916D01*
X10706429Y-14426964D01*
X10715953Y-14465059D01*
X10715953Y-14512678D01*
X10706429Y-14550774D01*
X10696905Y-14569821D01*
X10687381Y-14579345D01*
X10668334Y-14588869D01*
X10649286Y-14588869D01*
X10630239Y-14579345D01*
X10620715Y-14569821D01*
X10611191Y-14550774D01*
X10601667Y-14512678D01*
X10601667Y-14465059D01*
X10611191Y-14426964D01*
X10620715Y-14407916D01*
X10630239Y-14398393D01*
X10649286Y-14388869D01*
X10801667Y-14588869D02*
X10801667Y-14455535D01*
X10801667Y-14474583D02*
X10811191Y-14465059D01*
X10830239Y-14455535D01*
X10858810Y-14455535D01*
X10877858Y-14465059D01*
X10887381Y-14484107D01*
X10887381Y-14588869D01*
X10887381Y-14484107D02*
X10896905Y-14465059D01*
X10915953Y-14455535D01*
X10944524Y-14455535D01*
X10963572Y-14465059D01*
X10973096Y-14484107D01*
X10973096Y-14588869D01*
X11068334Y-14588869D02*
X11068334Y-14455535D01*
X11068334Y-14474583D02*
X11077858Y-14465059D01*
X11096905Y-14455535D01*
X11125477Y-14455535D01*
X11144524Y-14465059D01*
X11154048Y-14484107D01*
X11154048Y-14588869D01*
X11154048Y-14484107D02*
X11163572Y-14465059D01*
X11182620Y-14455535D01*
X11211191Y-14455535D01*
X11230239Y-14465059D01*
X11239762Y-14484107D01*
X11239762Y-14588869D01*
X11630239Y-14379345D02*
X11458810Y-14636488D01*
X11887381Y-14388869D02*
X11906429Y-14388869D01*
X11925477Y-14398393D01*
X11935000Y-14407916D01*
X11944524Y-14426964D01*
X11954048Y-14465059D01*
X11954048Y-14512678D01*
X11944524Y-14550774D01*
X11935000Y-14569821D01*
X11925477Y-14579345D01*
X11906429Y-14588869D01*
X11887381Y-14588869D01*
X11868334Y-14579345D01*
X11858810Y-14569821D01*
X11849286Y-14550774D01*
X11839762Y-14512678D01*
X11839762Y-14465059D01*
X11849286Y-14426964D01*
X11858810Y-14407916D01*
X11868334Y-14398393D01*
X11887381Y-14388869D01*
X12039762Y-14569821D02*
X12049286Y-14579345D01*
X12039762Y-14588869D01*
X12030239Y-14579345D01*
X12039762Y-14569821D01*
X12039762Y-14588869D01*
X12173096Y-14388869D02*
X12192143Y-14388869D01*
X12211191Y-14398393D01*
X12220715Y-14407916D01*
X12230239Y-14426964D01*
X12239762Y-14465059D01*
X12239762Y-14512678D01*
X12230239Y-14550774D01*
X12220715Y-14569821D01*
X12211191Y-14579345D01*
X12192143Y-14588869D01*
X12173096Y-14588869D01*
X12154048Y-14579345D01*
X12144524Y-14569821D01*
X12135000Y-14550774D01*
X12125477Y-14512678D01*
X12125477Y-14465059D01*
X12135000Y-14426964D01*
X12144524Y-14407916D01*
X12154048Y-14398393D01*
X12173096Y-14388869D01*
X12430239Y-14588869D02*
X12315953Y-14588869D01*
X12373096Y-14588869D02*
X12373096Y-14388869D01*
X12354048Y-14417440D01*
X12335000Y-14436488D01*
X12315953Y-14446012D01*
X12611191Y-14388869D02*
X12515953Y-14388869D01*
X12506429Y-14484107D01*
X12515953Y-14474583D01*
X12535000Y-14465059D01*
X12582619Y-14465059D01*
X12601667Y-14474583D01*
X12611191Y-14484107D01*
X12620715Y-14503155D01*
X12620715Y-14550774D01*
X12611191Y-14569821D01*
X12601667Y-14579345D01*
X12582619Y-14588869D01*
X12535000Y-14588869D01*
X12515953Y-14579345D01*
X12506429Y-14569821D01*
X12687381Y-14388869D02*
X12820715Y-14388869D01*
X12735000Y-14588869D01*
X12887381Y-14388869D02*
X12887381Y-14426964D01*
X12963572Y-14388869D02*
X12963572Y-14426964D01*
X13258810Y-14665059D02*
X13249286Y-14655535D01*
X13230239Y-14626964D01*
X13220715Y-14607916D01*
X13211191Y-14579345D01*
X13201667Y-14531726D01*
X13201667Y-14493631D01*
X13211191Y-14446012D01*
X13220715Y-14417440D01*
X13230239Y-14398393D01*
X13249286Y-14369821D01*
X13258810Y-14360297D01*
X13430239Y-14388869D02*
X13335000Y-14388869D01*
X13325477Y-14484107D01*
X13335000Y-14474583D01*
X13354048Y-14465059D01*
X13401667Y-14465059D01*
X13420715Y-14474583D01*
X13430239Y-14484107D01*
X13439762Y-14503155D01*
X13439762Y-14550774D01*
X13430239Y-14569821D01*
X13420715Y-14579345D01*
X13401667Y-14588869D01*
X13354048Y-14588869D01*
X13335000Y-14579345D01*
X13325477Y-14569821D01*
X13677858Y-14588869D02*
X13677858Y-14388869D01*
X13763572Y-14588869D02*
X13763572Y-14484107D01*
X13754048Y-14465059D01*
X13735000Y-14455535D01*
X13706429Y-14455535D01*
X13687381Y-14465059D01*
X13677858Y-14474583D01*
X13887381Y-14588869D02*
X13868334Y-14579345D01*
X13858810Y-14569821D01*
X13849286Y-14550774D01*
X13849286Y-14493631D01*
X13858810Y-14474583D01*
X13868334Y-14465059D01*
X13887381Y-14455535D01*
X13915953Y-14455535D01*
X13935000Y-14465059D01*
X13944524Y-14474583D01*
X13954048Y-14493631D01*
X13954048Y-14550774D01*
X13944524Y-14569821D01*
X13935000Y-14579345D01*
X13915953Y-14588869D01*
X13887381Y-14588869D01*
X14068334Y-14588869D02*
X14049286Y-14579345D01*
X14039762Y-14560297D01*
X14039762Y-14388869D01*
X14220715Y-14579345D02*
X14201667Y-14588869D01*
X14163572Y-14588869D01*
X14144524Y-14579345D01*
X14135000Y-14560297D01*
X14135000Y-14484107D01*
X14144524Y-14465059D01*
X14163572Y-14455535D01*
X14201667Y-14455535D01*
X14220715Y-14465059D01*
X14230239Y-14484107D01*
X14230239Y-14503155D01*
X14135000Y-14522202D01*
X14306429Y-14579345D02*
X14325477Y-14588869D01*
X14363572Y-14588869D01*
X14382619Y-14579345D01*
X14392143Y-14560297D01*
X14392143Y-14550774D01*
X14382619Y-14531726D01*
X14363572Y-14522202D01*
X14335000Y-14522202D01*
X14315953Y-14512678D01*
X14306429Y-14493631D01*
X14306429Y-14484107D01*
X14315953Y-14465059D01*
X14335000Y-14455535D01*
X14363572Y-14455535D01*
X14382619Y-14465059D01*
X14458810Y-14665059D02*
X14468334Y-14655535D01*
X14487381Y-14626964D01*
X14496905Y-14607916D01*
X14506429Y-14579345D01*
X14515953Y-14531726D01*
X14515953Y-14493631D01*
X14506429Y-14446012D01*
X14496905Y-14417440D01*
X14487381Y-14398393D01*
X14468334Y-14369821D01*
X14458810Y-14360297D01*
D14*
X9661905Y-14737393D02*
X9661905Y-14787393D01*
X9636905Y-14762393D02*
X9686905Y-14762393D01*
D11*
X9982620Y-14652869D02*
X10001667Y-14652869D01*
X10020715Y-14662393D01*
X10030239Y-14671916D01*
X10039762Y-14690964D01*
X10049286Y-14729059D01*
X10049286Y-14776678D01*
X10039762Y-14814774D01*
X10030239Y-14833821D01*
X10020715Y-14843345D01*
X10001667Y-14852869D01*
X9982620Y-14852869D01*
X9963572Y-14843345D01*
X9954048Y-14833821D01*
X9944524Y-14814774D01*
X9935001Y-14776678D01*
X9935001Y-14729059D01*
X9944524Y-14690964D01*
X9954048Y-14671916D01*
X9963572Y-14662393D01*
X9982620Y-14652869D01*
X10135001Y-14833821D02*
X10144524Y-14843345D01*
X10135001Y-14852869D01*
X10125477Y-14843345D01*
X10135001Y-14833821D01*
X10135001Y-14852869D01*
X10325477Y-14652869D02*
X10230239Y-14652869D01*
X10220715Y-14748107D01*
X10230239Y-14738583D01*
X10249286Y-14729059D01*
X10296905Y-14729059D01*
X10315953Y-14738583D01*
X10325477Y-14748107D01*
X10335001Y-14767155D01*
X10335001Y-14814774D01*
X10325477Y-14833821D01*
X10315953Y-14843345D01*
X10296905Y-14852869D01*
X10249286Y-14852869D01*
X10230239Y-14843345D01*
X10220715Y-14833821D01*
X10458810Y-14652869D02*
X10477858Y-14652869D01*
X10496905Y-14662393D01*
X10506429Y-14671916D01*
X10515953Y-14690964D01*
X10525477Y-14729059D01*
X10525477Y-14776678D01*
X10515953Y-14814774D01*
X10506429Y-14833821D01*
X10496905Y-14843345D01*
X10477858Y-14852869D01*
X10458810Y-14852869D01*
X10439762Y-14843345D01*
X10430239Y-14833821D01*
X10420715Y-14814774D01*
X10411191Y-14776678D01*
X10411191Y-14729059D01*
X10420715Y-14690964D01*
X10430239Y-14671916D01*
X10439762Y-14662393D01*
X10458810Y-14652869D01*
X10649286Y-14652869D02*
X10668334Y-14652869D01*
X10687381Y-14662393D01*
X10696905Y-14671916D01*
X10706429Y-14690964D01*
X10715953Y-14729059D01*
X10715953Y-14776678D01*
X10706429Y-14814774D01*
X10696905Y-14833821D01*
X10687381Y-14843345D01*
X10668334Y-14852869D01*
X10649286Y-14852869D01*
X10630239Y-14843345D01*
X10620715Y-14833821D01*
X10611191Y-14814774D01*
X10601667Y-14776678D01*
X10601667Y-14729059D01*
X10611191Y-14690964D01*
X10620715Y-14671916D01*
X10630239Y-14662393D01*
X10649286Y-14652869D01*
X10801667Y-14852869D02*
X10801667Y-14719535D01*
X10801667Y-14738583D02*
X10811191Y-14729059D01*
X10830239Y-14719535D01*
X10858810Y-14719535D01*
X10877858Y-14729059D01*
X10887381Y-14748107D01*
X10887381Y-14852869D01*
X10887381Y-14748107D02*
X10896905Y-14729059D01*
X10915953Y-14719535D01*
X10944524Y-14719535D01*
X10963572Y-14729059D01*
X10973096Y-14748107D01*
X10973096Y-14852869D01*
X11068334Y-14852869D02*
X11068334Y-14719535D01*
X11068334Y-14738583D02*
X11077858Y-14729059D01*
X11096905Y-14719535D01*
X11125477Y-14719535D01*
X11144524Y-14729059D01*
X11154048Y-14748107D01*
X11154048Y-14852869D01*
X11154048Y-14748107D02*
X11163572Y-14729059D01*
X11182620Y-14719535D01*
X11211191Y-14719535D01*
X11230239Y-14729059D01*
X11239762Y-14748107D01*
X11239762Y-14852869D01*
X11630239Y-14643345D02*
X11458810Y-14900488D01*
X11887381Y-14652869D02*
X11906429Y-14652869D01*
X11925477Y-14662393D01*
X11935000Y-14671916D01*
X11944524Y-14690964D01*
X11954048Y-14729059D01*
X11954048Y-14776678D01*
X11944524Y-14814774D01*
X11935000Y-14833821D01*
X11925477Y-14843345D01*
X11906429Y-14852869D01*
X11887381Y-14852869D01*
X11868334Y-14843345D01*
X11858810Y-14833821D01*
X11849286Y-14814774D01*
X11839762Y-14776678D01*
X11839762Y-14729059D01*
X11849286Y-14690964D01*
X11858810Y-14671916D01*
X11868334Y-14662393D01*
X11887381Y-14652869D01*
X12039762Y-14833821D02*
X12049286Y-14843345D01*
X12039762Y-14852869D01*
X12030239Y-14843345D01*
X12039762Y-14833821D01*
X12039762Y-14852869D01*
X12173096Y-14652869D02*
X12192143Y-14652869D01*
X12211191Y-14662393D01*
X12220715Y-14671916D01*
X12230239Y-14690964D01*
X12239762Y-14729059D01*
X12239762Y-14776678D01*
X12230239Y-14814774D01*
X12220715Y-14833821D01*
X12211191Y-14843345D01*
X12192143Y-14852869D01*
X12173096Y-14852869D01*
X12154048Y-14843345D01*
X12144524Y-14833821D01*
X12135000Y-14814774D01*
X12125477Y-14776678D01*
X12125477Y-14729059D01*
X12135000Y-14690964D01*
X12144524Y-14671916D01*
X12154048Y-14662393D01*
X12173096Y-14652869D01*
X12430239Y-14852869D02*
X12315953Y-14852869D01*
X12373096Y-14852869D02*
X12373096Y-14652869D01*
X12354048Y-14681440D01*
X12335000Y-14700488D01*
X12315953Y-14710012D01*
X12525477Y-14852869D02*
X12563572Y-14852869D01*
X12582619Y-14843345D01*
X12592143Y-14833821D01*
X12611191Y-14805250D01*
X12620715Y-14767155D01*
X12620715Y-14690964D01*
X12611191Y-14671916D01*
X12601667Y-14662393D01*
X12582619Y-14652869D01*
X12544524Y-14652869D01*
X12525477Y-14662393D01*
X12515953Y-14671916D01*
X12506429Y-14690964D01*
X12506429Y-14738583D01*
X12515953Y-14757631D01*
X12525477Y-14767155D01*
X12544524Y-14776678D01*
X12582619Y-14776678D01*
X12601667Y-14767155D01*
X12611191Y-14757631D01*
X12620715Y-14738583D01*
X12687381Y-14652869D02*
X12820715Y-14652869D01*
X12735000Y-14852869D01*
X12887381Y-14652869D02*
X12887381Y-14690964D01*
X12963572Y-14652869D02*
X12963572Y-14690964D01*
X13258810Y-14929059D02*
X13249286Y-14919535D01*
X13230239Y-14890964D01*
X13220715Y-14871916D01*
X13211191Y-14843345D01*
X13201667Y-14795726D01*
X13201667Y-14757631D01*
X13211191Y-14710012D01*
X13220715Y-14681440D01*
X13230239Y-14662393D01*
X13249286Y-14633821D01*
X13258810Y-14624297D01*
X13325477Y-14671916D02*
X13335000Y-14662393D01*
X13354048Y-14652869D01*
X13401667Y-14652869D01*
X13420715Y-14662393D01*
X13430239Y-14671916D01*
X13439762Y-14690964D01*
X13439762Y-14710012D01*
X13430239Y-14738583D01*
X13315953Y-14852869D01*
X13439762Y-14852869D01*
X13677858Y-14852869D02*
X13677858Y-14652869D01*
X13763572Y-14852869D02*
X13763572Y-14748107D01*
X13754048Y-14729059D01*
X13735000Y-14719535D01*
X13706429Y-14719535D01*
X13687381Y-14729059D01*
X13677858Y-14738583D01*
X13887381Y-14852869D02*
X13868334Y-14843345D01*
X13858810Y-14833821D01*
X13849286Y-14814774D01*
X13849286Y-14757631D01*
X13858810Y-14738583D01*
X13868334Y-14729059D01*
X13887381Y-14719535D01*
X13915953Y-14719535D01*
X13935000Y-14729059D01*
X13944524Y-14738583D01*
X13954048Y-14757631D01*
X13954048Y-14814774D01*
X13944524Y-14833821D01*
X13935000Y-14843345D01*
X13915953Y-14852869D01*
X13887381Y-14852869D01*
X14068334Y-14852869D02*
X14049286Y-14843345D01*
X14039762Y-14824297D01*
X14039762Y-14652869D01*
X14220715Y-14843345D02*
X14201667Y-14852869D01*
X14163572Y-14852869D01*
X14144524Y-14843345D01*
X14135000Y-14824297D01*
X14135000Y-14748107D01*
X14144524Y-14729059D01*
X14163572Y-14719535D01*
X14201667Y-14719535D01*
X14220715Y-14729059D01*
X14230239Y-14748107D01*
X14230239Y-14767155D01*
X14135000Y-14786202D01*
X14306429Y-14843345D02*
X14325477Y-14852869D01*
X14363572Y-14852869D01*
X14382619Y-14843345D01*
X14392143Y-14824297D01*
X14392143Y-14814774D01*
X14382619Y-14795726D01*
X14363572Y-14786202D01*
X14335000Y-14786202D01*
X14315953Y-14776678D01*
X14306429Y-14757631D01*
X14306429Y-14748107D01*
X14315953Y-14729059D01*
X14335000Y-14719535D01*
X14363572Y-14719535D01*
X14382619Y-14729059D01*
X14458810Y-14929059D02*
X14468334Y-14919535D01*
X14487381Y-14890964D01*
X14496905Y-14871916D01*
X14506429Y-14843345D01*
X14515953Y-14795726D01*
X14515953Y-14757631D01*
X14506429Y-14710012D01*
X14496905Y-14681440D01*
X14487381Y-14662393D01*
X14468334Y-14633821D01*
X14458810Y-14624297D01*
D15*
X9670797Y-15065284D02*
X9670797Y-14987501D01*
X9593014Y-14987501D01*
X9593014Y-15065284D01*
X9670797Y-15065284D01*
D11*
X10049286Y-15116869D02*
X9935001Y-15116869D01*
X9992143Y-15116869D02*
X9992143Y-14916869D01*
X9973096Y-14945440D01*
X9954048Y-14964488D01*
X9935001Y-14974012D01*
X10135001Y-15097821D02*
X10144524Y-15107345D01*
X10135001Y-15116869D01*
X10125477Y-15107345D01*
X10135001Y-15097821D01*
X10135001Y-15116869D01*
X10335001Y-15116869D02*
X10220715Y-15116869D01*
X10277858Y-15116869D02*
X10277858Y-14916869D01*
X10258810Y-14945440D01*
X10239762Y-14964488D01*
X10220715Y-14974012D01*
X10458810Y-14916869D02*
X10477858Y-14916869D01*
X10496905Y-14926393D01*
X10506429Y-14935916D01*
X10515953Y-14954964D01*
X10525477Y-14993059D01*
X10525477Y-15040678D01*
X10515953Y-15078774D01*
X10506429Y-15097821D01*
X10496905Y-15107345D01*
X10477858Y-15116869D01*
X10458810Y-15116869D01*
X10439762Y-15107345D01*
X10430239Y-15097821D01*
X10420715Y-15078774D01*
X10411191Y-15040678D01*
X10411191Y-14993059D01*
X10420715Y-14954964D01*
X10430239Y-14935916D01*
X10439762Y-14926393D01*
X10458810Y-14916869D01*
X10649286Y-14916869D02*
X10668334Y-14916869D01*
X10687381Y-14926393D01*
X10696905Y-14935916D01*
X10706429Y-14954964D01*
X10715953Y-14993059D01*
X10715953Y-15040678D01*
X10706429Y-15078774D01*
X10696905Y-15097821D01*
X10687381Y-15107345D01*
X10668334Y-15116869D01*
X10649286Y-15116869D01*
X10630239Y-15107345D01*
X10620715Y-15097821D01*
X10611191Y-15078774D01*
X10601667Y-15040678D01*
X10601667Y-14993059D01*
X10611191Y-14954964D01*
X10620715Y-14935916D01*
X10630239Y-14926393D01*
X10649286Y-14916869D01*
X10801667Y-15116869D02*
X10801667Y-14983535D01*
X10801667Y-15002583D02*
X10811191Y-14993059D01*
X10830239Y-14983535D01*
X10858810Y-14983535D01*
X10877858Y-14993059D01*
X10887381Y-15012107D01*
X10887381Y-15116869D01*
X10887381Y-15012107D02*
X10896905Y-14993059D01*
X10915953Y-14983535D01*
X10944524Y-14983535D01*
X10963572Y-14993059D01*
X10973096Y-15012107D01*
X10973096Y-15116869D01*
X11068334Y-15116869D02*
X11068334Y-14983535D01*
X11068334Y-15002583D02*
X11077858Y-14993059D01*
X11096905Y-14983535D01*
X11125477Y-14983535D01*
X11144524Y-14993059D01*
X11154048Y-15012107D01*
X11154048Y-15116869D01*
X11154048Y-15012107D02*
X11163572Y-14993059D01*
X11182620Y-14983535D01*
X11211191Y-14983535D01*
X11230239Y-14993059D01*
X11239762Y-15012107D01*
X11239762Y-15116869D01*
X11630239Y-14907345D02*
X11458810Y-15164488D01*
X11887381Y-14916869D02*
X11906429Y-14916869D01*
X11925477Y-14926393D01*
X11935000Y-14935916D01*
X11944524Y-14954964D01*
X11954048Y-14993059D01*
X11954048Y-15040678D01*
X11944524Y-15078774D01*
X11935000Y-15097821D01*
X11925477Y-15107345D01*
X11906429Y-15116869D01*
X11887381Y-15116869D01*
X11868334Y-15107345D01*
X11858810Y-15097821D01*
X11849286Y-15078774D01*
X11839762Y-15040678D01*
X11839762Y-14993059D01*
X11849286Y-14954964D01*
X11858810Y-14935916D01*
X11868334Y-14926393D01*
X11887381Y-14916869D01*
X12039762Y-15097821D02*
X12049286Y-15107345D01*
X12039762Y-15116869D01*
X12030239Y-15107345D01*
X12039762Y-15097821D01*
X12039762Y-15116869D01*
X12173096Y-14916869D02*
X12192143Y-14916869D01*
X12211191Y-14926393D01*
X12220715Y-14935916D01*
X12230239Y-14954964D01*
X12239762Y-14993059D01*
X12239762Y-15040678D01*
X12230239Y-15078774D01*
X12220715Y-15097821D01*
X12211191Y-15107345D01*
X12192143Y-15116869D01*
X12173096Y-15116869D01*
X12154048Y-15107345D01*
X12144524Y-15097821D01*
X12135000Y-15078774D01*
X12125477Y-15040678D01*
X12125477Y-14993059D01*
X12135000Y-14954964D01*
X12144524Y-14935916D01*
X12154048Y-14926393D01*
X12173096Y-14916869D01*
X12411191Y-14983535D02*
X12411191Y-15116869D01*
X12363572Y-14907345D02*
X12315953Y-15050202D01*
X12439762Y-15050202D01*
X12496905Y-14916869D02*
X12620715Y-14916869D01*
X12554048Y-14993059D01*
X12582619Y-14993059D01*
X12601667Y-15002583D01*
X12611191Y-15012107D01*
X12620715Y-15031155D01*
X12620715Y-15078774D01*
X12611191Y-15097821D01*
X12601667Y-15107345D01*
X12582619Y-15116869D01*
X12525477Y-15116869D01*
X12506429Y-15107345D01*
X12496905Y-15097821D01*
X12687381Y-14916869D02*
X12811191Y-14916869D01*
X12744524Y-14993059D01*
X12773096Y-14993059D01*
X12792143Y-15002583D01*
X12801667Y-15012107D01*
X12811191Y-15031155D01*
X12811191Y-15078774D01*
X12801667Y-15097821D01*
X12792143Y-15107345D01*
X12773096Y-15116869D01*
X12715953Y-15116869D01*
X12696905Y-15107345D01*
X12687381Y-15097821D01*
X12887381Y-14916869D02*
X12887381Y-14954964D01*
X12963572Y-14916869D02*
X12963572Y-14954964D01*
X13258810Y-15193059D02*
X13249286Y-15183535D01*
X13230239Y-15154964D01*
X13220715Y-15135916D01*
X13211191Y-15107345D01*
X13201667Y-15059726D01*
X13201667Y-15021631D01*
X13211191Y-14974012D01*
X13220715Y-14945440D01*
X13230239Y-14926393D01*
X13249286Y-14897821D01*
X13258810Y-14888297D01*
X13420715Y-14983535D02*
X13420715Y-15116869D01*
X13373096Y-14907345D02*
X13325477Y-15050202D01*
X13449286Y-15050202D01*
X13677858Y-15116869D02*
X13677858Y-14916869D01*
X13763572Y-15116869D02*
X13763572Y-15012107D01*
X13754048Y-14993059D01*
X13735000Y-14983535D01*
X13706429Y-14983535D01*
X13687381Y-14993059D01*
X13677858Y-15002583D01*
X13887381Y-15116869D02*
X13868334Y-15107345D01*
X13858810Y-15097821D01*
X13849286Y-15078774D01*
X13849286Y-15021631D01*
X13858810Y-15002583D01*
X13868334Y-14993059D01*
X13887381Y-14983535D01*
X13915953Y-14983535D01*
X13935000Y-14993059D01*
X13944524Y-15002583D01*
X13954048Y-15021631D01*
X13954048Y-15078774D01*
X13944524Y-15097821D01*
X13935000Y-15107345D01*
X13915953Y-15116869D01*
X13887381Y-15116869D01*
X14068334Y-15116869D02*
X14049286Y-15107345D01*
X14039762Y-15088297D01*
X14039762Y-14916869D01*
X14220715Y-15107345D02*
X14201667Y-15116869D01*
X14163572Y-15116869D01*
X14144524Y-15107345D01*
X14135000Y-15088297D01*
X14135000Y-15012107D01*
X14144524Y-14993059D01*
X14163572Y-14983535D01*
X14201667Y-14983535D01*
X14220715Y-14993059D01*
X14230239Y-15012107D01*
X14230239Y-15031155D01*
X14135000Y-15050202D01*
X14306429Y-15107345D02*
X14325477Y-15116869D01*
X14363572Y-15116869D01*
X14382619Y-15107345D01*
X14392143Y-15088297D01*
X14392143Y-15078774D01*
X14382619Y-15059726D01*
X14363572Y-15050202D01*
X14335000Y-15050202D01*
X14315953Y-15040678D01*
X14306429Y-15021631D01*
X14306429Y-15012107D01*
X14315953Y-14993059D01*
X14335000Y-14983535D01*
X14363572Y-14983535D01*
X14382619Y-14993059D01*
X14458810Y-15193059D02*
X14468334Y-15183535D01*
X14487381Y-15154964D01*
X14496905Y-15135916D01*
X14506429Y-15107345D01*
X14515953Y-15059726D01*
X14515953Y-15021631D01*
X14506429Y-14974012D01*
X14496905Y-14945440D01*
X14487381Y-14926393D01*
X14468334Y-14897821D01*
X14458810Y-14888297D01*
M02*
